<?xml version="1.0" encoding="UTF-8"?>
<!DOCTYPE svg PUBLIC "-//W3C//DTD SVG 1.1//EN" "http://www.w3.org/Graphics/SVG/1.1/DTD/svg11.dtd">
<svg xmlns="http://www.w3.org/2000/svg" version="1.1" width="1000px" height="1000px" style="shape-rendering:geometricPrecision; text-rendering:geometricPrecision; image-rendering:optimizeQuality; fill-rule:evenodd; clip-rule:evenodd" xmlns:xlink="http://www.w3.org/1999/xlink">
<g><path style="opacity:1" fill="#3fa0ff" d="M 492.5,-0.5 C 497.167,-0.5 501.833,-0.5 506.5,-0.5C 515.833,3.5 525.167,7.5 534.5,11.5C 533.448,11.3505 532.448,11.5172 531.5,12C 542.012,19.0297 552.346,26.1964 562.5,33.5C 561.5,33.5 560.5,33.5 559.5,33.5C 557.447,33.5979 555.78,32.9313 554.5,31.5C 553.22,30.0687 551.553,29.4021 549.5,29.5C 548.22,28.0687 546.553,27.4021 544.5,27.5C 543.22,26.0687 541.553,25.4021 539.5,25.5C 538.22,24.0687 536.553,23.4021 534.5,23.5C 533.22,22.0687 531.553,21.4021 529.5,21.5C 527.597,21.2041 525.93,20.5375 524.5,19.5C 523.22,18.0687 521.553,17.4021 519.5,17.5C 518.508,17.6716 517.842,17.3382 517.5,16.5C 516.057,15.2973 514.391,14.7973 512.5,15C 513.066,15.9947 513.733,16.828 514.5,17.5C 516.326,19.1475 517.66,21.1475 518.5,23.5C 518.427,25.0269 519.094,26.0269 520.5,26.5C 520.427,28.0269 521.094,29.0269 522.5,29.5C 522.427,31.0269 523.094,32.0269 524.5,32.5C 524.427,34.0269 525.094,35.0269 526.5,35.5C 526.427,37.0269 527.094,38.0269 528.5,38.5C 528.427,40.0269 529.094,41.0269 530.5,41.5C 534.553,46.8924 538.22,52.5591 541.5,58.5C 541.427,60.0269 542.094,61.0269 543.5,61.5C 543.427,63.0269 544.094,64.0269 545.5,64.5C 545.5,65.1667 545.5,65.8333 545.5,66.5C 538.672,61.5852 531.672,56.9186 524.5,52.5C 524.573,50.9731 523.906,49.9731 522.5,49.5C 522.573,47.9731 521.906,46.9731 520.5,46.5C 520.573,44.9731 519.906,43.9731 518.5,43.5C 518.573,41.9731 517.906,40.9731 516.5,40.5C 516.573,38.9731 515.906,37.9731 514.5,37.5C 509.672,31.1826 505.338,24.5159 501.5,17.5C 500.167,13.5 498.833,13.5 497.5,17.5C 495.554,21.4394 493.221,25.106 490.5,28.5C 487.19,26.5179 484.19,24.1846 481.5,21.5C 482.026,19.7697 483.026,18.4363 484.5,17.5C 485.267,16.828 485.934,15.9947 486.5,15C 484.609,14.7973 482.943,15.2973 481.5,16.5C 481.158,17.3382 480.492,17.6716 479.5,17.5C 478.041,17.4326 476.708,17.7659 475.5,18.5C 472.921,15.8652 469.921,13.6985 466.5,12C 467.056,11.6174 467.389,11.1174 467.5,10.5C 475.75,6.639 484.084,2.97233 492.5,-0.5 Z"/></g>
<g><path style="opacity:1" fill="#4ba9ff" d="M 467.5,10.5 C 467.389,11.1174 467.056,11.6174 466.5,12C 469.921,13.6985 472.921,15.8652 475.5,18.5C 474.833,18.5 474.5,18.8333 474.5,19.5C 473.07,20.5375 471.403,21.2041 469.5,21.5C 467.447,21.4021 465.78,22.0687 464.5,23.5C 462.447,23.4021 460.78,24.0687 459.5,25.5C 457.447,25.4021 455.78,26.0687 454.5,27.5C 452.447,27.4021 450.78,28.0687 449.5,29.5C 447.447,29.4021 445.78,30.0687 444.5,31.5C 444.158,32.3382 443.492,32.6716 442.5,32.5C 442.611,31.8826 442.944,31.3826 443.5,31C 439.929,28.5794 436.262,26.4127 432.5,24.5C 443.784,19.0676 455.451,14.401 467.5,10.5 Z"/></g>
<g><path style="opacity:1" fill="#549fff" d="M 534.5,11.5 C 560.482,21.2667 586.149,31.6 611.5,42.5C 612.78,43.9313 614.447,44.5979 616.5,44.5C 617.78,45.9313 619.447,46.5979 621.5,46.5C 622.78,47.9313 624.447,48.5979 626.5,48.5C 627.78,49.9313 629.447,50.5979 631.5,50.5C 632.78,51.9313 634.447,52.5979 636.5,52.5C 637.78,53.9313 639.447,54.5979 641.5,54.5C 642.78,55.9313 644.447,56.5979 646.5,56.5C 648.403,56.7959 650.07,57.4625 651.5,58.5C 652.167,59.1667 652.833,59.8333 653.5,60.5C 662.592,67.2241 671.926,73.7241 681.5,80C 683.063,80.7589 684.063,81.9256 684.5,83.5C 644.197,68.07 604.197,52.07 564.5,35.5C 563.833,34.8333 563.167,34.1667 562.5,33.5C 552.346,26.1964 542.012,19.0297 531.5,12C 532.448,11.5172 533.448,11.3505 534.5,11.5 Z"/></g>
<g><path style="opacity:0.531" fill="#fbfeff" d="M 484.5,17.5 C 483.791,16.596 482.791,16.2627 481.5,16.5C 482.943,15.2973 484.609,14.7973 486.5,15C 485.934,15.9947 485.267,16.828 484.5,17.5 Z"/></g>
<g><path style="opacity:0.41" fill="#ebfeff" d="M 501.5,17.5 C 500.167,16.1667 498.833,16.1667 497.5,17.5C 498.833,13.5 500.167,13.5 501.5,17.5 Z"/></g>
<g><path style="opacity:0.531" fill="#fbfeff" d="M 517.5,16.5 C 516.209,16.2627 515.209,16.596 514.5,17.5C 513.733,16.828 513.066,15.9947 512.5,15C 514.391,14.7973 516.057,15.2973 517.5,16.5 Z"/></g>
<g><path style="opacity:0.393" fill="#f5feff" d="M 479.5,17.5 C 478.22,18.9313 476.553,19.5979 474.5,19.5C 474.5,18.8333 474.833,18.5 475.5,18.5C 476.708,17.7659 478.041,17.4326 479.5,17.5 Z"/></g>
<g><path style="opacity:0.393" fill="#f5feff" d="M 519.5,17.5 C 521.553,17.4021 523.22,18.0687 524.5,19.5C 522.447,19.5979 520.78,18.9313 519.5,17.5 Z"/></g>
<g><path style="opacity:0.396" fill="#f9feff" d="M 469.5,21.5 C 468.22,22.9313 466.553,23.5979 464.5,23.5C 465.78,22.0687 467.447,21.4021 469.5,21.5 Z"/></g>
<g><path style="opacity:1" fill="#30a3ff" d="M 481.5,21.5 C 484.19,24.1846 487.19,26.5179 490.5,28.5C 488.735,31.7089 486.735,34.7089 484.5,37.5C 483.094,37.9731 482.427,38.9731 482.5,40.5C 481.094,40.9731 480.427,41.9731 480.5,43.5C 479.094,43.9731 478.427,44.9731 478.5,46.5C 477.094,46.9731 476.427,47.9731 476.5,49.5C 475.094,49.9731 474.427,50.9731 474.5,52.5C 472.195,51.0106 469.862,49.5106 467.5,48C 466.663,46.9887 466.33,45.8221 466.5,44.5C 466.932,43.2905 467.599,42.2905 468.5,41.5C 469.906,41.0269 470.573,40.0269 470.5,38.5C 471.906,38.0269 472.573,37.0269 472.5,35.5C 473.906,35.0269 474.573,34.0269 474.5,32.5C 475.906,32.0269 476.573,31.0269 476.5,29.5C 477.906,29.0269 478.573,28.0269 478.5,26.5C 479.906,26.0269 480.573,25.0269 480.5,23.5C 480.328,22.5084 480.662,21.8417 481.5,21.5 Z"/></g>
<g><path style="opacity:0.396" fill="#f9feff" d="M 529.5,21.5 C 531.553,21.4021 533.22,22.0687 534.5,23.5C 532.447,23.5979 530.78,22.9313 529.5,21.5 Z"/></g>
<g><path style="opacity:0.409" fill="#f6feff" d="M 464.5,23.5 C 463.22,24.9313 461.553,25.5979 459.5,25.5C 460.78,24.0687 462.447,23.4021 464.5,23.5 Z"/></g>
<g><path style="opacity:0.988" fill="#c2f7ff" d="M 480.5,23.5 C 480.573,25.0269 479.906,26.0269 478.5,26.5C 478.427,24.9731 479.094,23.9731 480.5,23.5 Z"/></g>
<g><path style="opacity:0.425" fill="#e1fbff" d="M 518.5,23.5 C 519.906,23.9731 520.573,24.9731 520.5,26.5C 519.094,26.0269 518.427,25.0269 518.5,23.5 Z"/></g>
<g><path style="opacity:0.409" fill="#f6feff" d="M 534.5,23.5 C 536.553,23.4021 538.22,24.0687 539.5,25.5C 537.447,25.5979 535.78,24.9313 534.5,23.5 Z"/></g>
<g><path style="opacity:0.4" fill="#f4fdff" d="M 459.5,25.5 C 458.22,26.9313 456.553,27.5979 454.5,27.5C 455.78,26.0687 457.447,25.4021 459.5,25.5 Z"/></g>
<g><path style="opacity:0.4" fill="#f4fdff" d="M 539.5,25.5 C 541.553,25.4021 543.22,26.0687 544.5,27.5C 542.447,27.5979 540.78,26.9313 539.5,25.5 Z"/></g>
<g><path style="opacity:0.969" fill="#d7fdff" d="M 478.5,26.5 C 478.573,28.0269 477.906,29.0269 476.5,29.5C 476.427,27.9731 477.094,26.9731 478.5,26.5 Z"/></g>
<g><path style="opacity:0.396" fill="#ebfeff" d="M 520.5,26.5 C 521.906,26.9731 522.573,27.9731 522.5,29.5C 521.094,29.0269 520.427,28.0269 520.5,26.5 Z"/></g>
<g><path style="opacity:0.416" fill="#f7feff" d="M 454.5,27.5 C 453.22,28.9313 451.553,29.5979 449.5,29.5C 450.78,28.0687 452.447,27.4021 454.5,27.5 Z"/></g>
<g><path style="opacity:0.416" fill="#f7feff" d="M 544.5,27.5 C 546.553,27.4021 548.22,28.0687 549.5,29.5C 547.447,29.5979 545.78,28.9313 544.5,27.5 Z"/></g>
<g><path style="opacity:0.424" fill="#f4fdff" d="M 449.5,29.5 C 448.22,30.9313 446.553,31.5979 444.5,31.5C 445.78,30.0687 447.447,29.4021 449.5,29.5 Z"/></g>
<g><path style="opacity:0.937" fill="#f0feff" d="M 476.5,29.5 C 476.573,31.0269 475.906,32.0269 474.5,32.5C 474.427,30.9731 475.094,29.9731 476.5,29.5 Z"/></g>
<g><path style="opacity:0.369" fill="#f7feff" d="M 522.5,29.5 C 523.906,29.9731 524.573,30.9731 524.5,32.5C 523.094,32.0269 522.427,31.0269 522.5,29.5 Z"/></g>
<g><path style="opacity:0.424" fill="#f4fdff" d="M 549.5,29.5 C 551.553,29.4021 553.22,30.0687 554.5,31.5C 552.447,31.5979 550.78,30.9313 549.5,29.5 Z"/></g>
<g><path style="opacity:0.488" fill="#fefffe" d="M 474.5,32.5 C 474.573,34.0269 473.906,35.0269 472.5,35.5C 472.427,33.9731 473.094,32.9731 474.5,32.5 Z"/></g>
<g><path style="opacity:0.488" fill="#fefffe" d="M 524.5,32.5 C 525.906,32.9731 526.573,33.9731 526.5,35.5C 525.094,35.0269 524.427,34.0269 524.5,32.5 Z"/></g>
<g><path style="opacity:0.435" fill="#f4fdff" d="M 439.5,33.5 C 438.22,34.9313 436.553,35.5979 434.5,35.5C 435.78,34.0687 437.447,33.4021 439.5,33.5 Z"/></g>
<g><path style="opacity:0.435" fill="#f4fdff" d="M 559.5,33.5 C 560.5,33.5 561.5,33.5 562.5,33.5C 563.167,34.1667 563.833,34.8333 564.5,35.5C 562.447,35.5979 560.78,34.9313 559.5,33.5 Z"/></g>
<g><path style="opacity:0.464" fill="#fefffe" d="M 472.5,35.5 C 472.573,37.0269 471.906,38.0269 470.5,38.5C 470.427,36.9731 471.094,35.9731 472.5,35.5 Z"/></g>
<g><path style="opacity:0.464" fill="#fefffe" d="M 526.5,35.5 C 527.906,35.9731 528.573,36.9731 528.5,38.5C 527.094,38.0269 526.427,37.0269 526.5,35.5 Z"/></g>
<g><path style="opacity:0.454" fill="#fefffe" d="M 484.5,37.5 C 484.573,39.0269 483.906,40.0269 482.5,40.5C 482.427,38.9731 483.094,37.9731 484.5,37.5 Z"/></g>
<g><path style="opacity:0.454" fill="#fefffe" d="M 514.5,37.5 C 515.906,37.9731 516.573,38.9731 516.5,40.5C 515.094,40.0269 514.427,39.0269 514.5,37.5 Z"/></g>
<g><path style="opacity:1" fill="#50b3ff" d="M 432.5,24.5 C 436.262,26.4127 439.929,28.5794 443.5,31C 442.944,31.3826 442.611,31.8826 442.5,32.5C 441.791,33.404 440.791,33.7373 439.5,33.5C 437.447,33.4021 435.78,34.0687 434.5,35.5C 414.803,44.07 394.803,52.07 374.5,59.5C 374.611,58.8826 374.944,58.3826 375.5,58C 373.5,56.6667 371.5,55.3333 369.5,54C 368.177,53.1841 367.511,52.0174 367.5,50.5C 369.553,50.5979 371.22,49.9313 372.5,48.5C 374.553,48.5979 376.22,47.9313 377.5,46.5C 379.553,46.5979 381.22,45.9313 382.5,44.5C 384.553,44.5979 386.22,43.9313 387.5,42.5C 402.117,35.7343 417.117,29.7343 432.5,24.5 Z"/></g>
<g><path style="opacity:0.443" fill="#fefffe" d="M 470.5,38.5 C 470.573,40.0269 469.906,41.0269 468.5,41.5C 468.427,39.9731 469.094,38.9731 470.5,38.5 Z"/></g>
<g><path style="opacity:0.443" fill="#fefffe" d="M 528.5,38.5 C 529.906,38.9731 530.573,39.9731 530.5,41.5C 529.094,41.0269 528.427,40.0269 528.5,38.5 Z"/></g>
<g><path style="opacity:0.485" fill="#fefffe" d="M 482.5,40.5 C 482.573,42.0269 481.906,43.0269 480.5,43.5C 480.427,41.9731 481.094,40.9731 482.5,40.5 Z"/></g>
<g><path style="opacity:0.485" fill="#fefffe" d="M 516.5,40.5 C 517.906,40.9731 518.573,41.9731 518.5,43.5C 517.094,43.0269 516.427,42.0269 516.5,40.5 Z"/></g>
<g><path style="opacity:0.435" fill="#ebfcff" d="M 387.5,42.5 C 386.22,43.9313 384.553,44.5979 382.5,44.5C 383.78,43.0687 385.447,42.4021 387.5,42.5 Z"/></g>
<g><path style="opacity:0.435" fill="#ebfcff" d="M 611.5,42.5 C 613.553,42.4021 615.22,43.0687 616.5,44.5C 614.447,44.5979 612.78,43.9313 611.5,42.5 Z"/></g>
<g><path style="opacity:0.353" fill="#f8feff" d="M 480.5,43.5 C 480.573,45.0269 479.906,46.0269 478.5,46.5C 478.427,44.9731 479.094,43.9731 480.5,43.5 Z"/></g>
<g><path style="opacity:0.353" fill="#f8feff" d="M 518.5,43.5 C 519.906,43.9731 520.573,44.9731 520.5,46.5C 519.094,46.0269 518.427,45.0269 518.5,43.5 Z"/></g>
<g><path style="opacity:0.416" fill="#ebfcff" d="M 382.5,44.5 C 381.22,45.9313 379.553,46.5979 377.5,46.5C 378.78,45.0687 380.447,44.4021 382.5,44.5 Z"/></g>
<g><path style="opacity:0.416" fill="#ebfcff" d="M 616.5,44.5 C 618.553,44.4021 620.22,45.0687 621.5,46.5C 619.447,46.5979 617.78,45.9313 616.5,44.5 Z"/></g>
<g><path style="opacity:0.422" fill="#ebfcff" d="M 377.5,46.5 C 376.22,47.9313 374.553,48.5979 372.5,48.5C 373.78,47.0687 375.447,46.4021 377.5,46.5 Z"/></g>
<g><path style="opacity:1" fill="#43acff" d="M 466.5,44.5 C 466.33,45.8221 466.663,46.9887 467.5,48C 469.862,49.5106 472.195,51.0106 474.5,52.5C 471.22,58.4409 467.553,64.1076 463.5,69.5C 462.094,69.9731 461.427,70.9731 461.5,72.5C 460.094,72.9731 459.427,73.9731 459.5,75.5C 458.094,75.9731 457.427,76.9731 457.5,78.5C 457.167,78.5 456.833,78.5 456.5,78.5C 453.833,76.8333 451.167,75.1667 448.5,73.5C 449.11,72.609 449.443,71.609 449.5,70.5C 450.906,70.0269 451.573,69.0269 451.5,67.5C 452.906,67.0269 453.573,66.0269 453.5,64.5C 454.906,64.0269 455.573,63.0269 455.5,61.5C 456.906,61.0269 457.573,60.0269 457.5,58.5C 460.004,53.4854 463.004,48.8187 466.5,44.5 Z"/></g>
<g><path style="opacity:0.394" fill="#f8feff" d="M 478.5,46.5 C 478.573,48.0269 477.906,49.0269 476.5,49.5C 476.427,47.9731 477.094,46.9731 478.5,46.5 Z"/></g>
<g><path style="opacity:0.394" fill="#f8feff" d="M 520.5,46.5 C 521.906,46.9731 522.573,47.9731 522.5,49.5C 521.094,49.0269 520.427,48.0269 520.5,46.5 Z"/></g>
<g><path style="opacity:0.422" fill="#ebfcff" d="M 621.5,46.5 C 623.553,46.4021 625.22,47.0687 626.5,48.5C 624.447,48.5979 622.78,47.9313 621.5,46.5 Z"/></g>
<g><path style="opacity:0.418" fill="#f2feff" d="M 372.5,48.5 C 371.22,49.9313 369.553,50.5979 367.5,50.5C 368.78,49.0687 370.447,48.4021 372.5,48.5 Z"/></g>
<g><path style="opacity:0.418" fill="#f2feff" d="M 626.5,48.5 C 628.553,48.4021 630.22,49.0687 631.5,50.5C 629.447,50.5979 627.78,49.9313 626.5,48.5 Z"/></g>
<g><path style="opacity:0.404" fill="#e4fbff" d="M 476.5,49.5 C 476.573,51.0269 475.906,52.0269 474.5,52.5C 474.427,50.9731 475.094,49.9731 476.5,49.5 Z"/></g>
<g><path style="opacity:0.404" fill="#e4fbff" d="M 522.5,49.5 C 523.906,49.9731 524.573,50.9731 524.5,52.5C 523.094,52.0269 522.427,51.0269 522.5,49.5 Z"/></g>
<g><path style="opacity:0.399" fill="#eefeff" d="M 631.5,50.5 C 633.553,50.4021 635.22,51.0687 636.5,52.5C 634.447,52.5979 632.78,51.9313 631.5,50.5 Z"/></g>
<g><path style="opacity:0.408" fill="#eefeff" d="M 636.5,52.5 C 638.553,52.4021 640.22,53.0687 641.5,54.5C 639.447,54.5979 637.78,53.9313 636.5,52.5 Z"/></g>
<g><path style="opacity:1" fill="#4ea9ff" d="M 524.5,52.5 C 531.672,56.9186 538.672,61.5852 545.5,66.5C 546.167,66.8333 546.833,67.1667 547.5,67.5C 547.427,69.0269 548.094,70.0269 549.5,70.5C 549.427,72.0269 550.094,73.0269 551.5,73.5C 551.427,75.0269 552.094,76.0269 553.5,76.5C 556.996,80.8187 559.996,85.4854 562.5,90.5C 562.427,92.0269 563.094,93.0269 564.5,93.5C 564.427,95.0269 565.094,96.0269 566.5,96.5C 566.427,98.0269 567.094,99.0269 568.5,99.5C 569.289,99.7828 569.956,100.283 570.5,101C 583.023,102.526 595.356,104.36 607.5,106.5C 606.448,106.351 605.448,106.517 604.5,107C 610.234,111.188 615.901,115.354 621.5,119.5C 618.615,119.806 615.948,119.473 613.5,118.5C 611.393,117.532 609.059,117.198 606.5,117.5C 605.054,116.387 603.387,116.22 601.5,117C 602.745,117.791 604.078,118.291 605.5,118.5C 606.209,119.404 607.209,119.737 608.5,119.5C 623.468,125.322 638.134,131.655 652.5,138.5C 650.621,138.393 650.288,138.893 651.5,140C 663.498,147.475 674.831,155.641 685.5,164.5C 645.428,148.293 605.761,131.293 566.5,113.5C 565.738,111.738 564.404,110.738 562.5,110.5C 562.573,108.973 561.906,107.973 560.5,107.5C 560.573,105.973 559.906,104.973 558.5,104.5C 553.672,98.1826 549.338,91.5159 545.5,84.5C 545.573,82.9731 544.906,81.9731 543.5,81.5C 543.573,79.9731 542.906,78.9731 541.5,78.5C 541.573,76.9731 540.906,75.9731 539.5,75.5C 539.573,73.9731 538.906,72.9731 537.5,72.5C 537.573,70.9731 536.906,69.9731 535.5,69.5C 531.447,64.1076 527.78,58.4409 524.5,52.5 Z"/></g>
<g><path style="opacity:0.399" fill="#f5feff" d="M 641.5,54.5 C 643.553,54.4021 645.22,55.0687 646.5,56.5C 644.447,56.5979 642.78,55.9313 641.5,54.5 Z"/></g>
<g><path style="opacity:0.393" fill="#f5feff" d="M 651.5,58.5 C 653.553,58.4021 655.22,59.0687 656.5,60.5C 655.5,60.5 654.5,60.5 653.5,60.5C 652.833,59.8333 652.167,59.1667 651.5,58.5 Z"/></g>
<g><path style="opacity:0.976" fill="#cdfcff" d="M 457.5,58.5 C 457.573,60.0269 456.906,61.0269 455.5,61.5C 455.427,59.9731 456.094,58.9731 457.5,58.5 Z"/></g>
<g><path style="opacity:0.418" fill="#e6feff" d="M 541.5,58.5 C 542.906,58.9731 543.573,59.9731 543.5,61.5C 542.094,61.0269 541.427,60.0269 541.5,58.5 Z"/></g>
<g><path style="opacity:1" fill="#539aff" d="M 653.5,60.5 C 654.5,60.5 655.5,60.5 656.5,60.5C 700.793,77.654 744.793,95.3207 788.5,113.5C 786.158,113.775 786.158,114.608 788.5,116C 804.426,126.118 819.76,136.951 834.5,148.5C 812.278,146.14 790.278,143.14 768.5,139.5C 761.923,135.866 755.59,131.7 749.5,127C 751.134,126.506 752.801,126.34 754.5,126.5C 769.616,127.931 784.616,129.931 799.5,132.5C 803.3,133.779 807.3,134.279 811.5,134C 808.904,132.864 806.237,132.031 803.5,131.5C 782.54,123.679 761.873,115.346 741.5,106.5C 740.22,105.069 738.553,104.402 736.5,104.5C 734.447,104.598 732.78,103.931 731.5,102.5C 730.22,101.069 728.553,100.402 726.5,100.5C 725.22,99.0687 723.553,98.4021 721.5,98.5C 720.22,97.0687 718.553,96.4021 716.5,96.5C 715.22,95.0687 713.553,94.4021 711.5,94.5C 710.22,93.0687 708.553,92.4021 706.5,92.5C 705.22,91.0687 703.553,90.4021 701.5,90.5C 700.22,89.0687 698.553,88.4021 696.5,88.5C 692.203,87.3454 688.203,85.6787 684.5,83.5C 684.063,81.9256 683.063,80.7589 681.5,80C 671.926,73.7241 662.592,67.2241 653.5,60.5 Z"/></g>
<g><path style="opacity:0.965" fill="#d7fdff" d="M 455.5,61.5 C 455.573,63.0269 454.906,64.0269 453.5,64.5C 453.427,62.9731 454.094,61.9731 455.5,61.5 Z"/></g>
<g><path style="opacity:0.378" fill="#ebfeff" d="M 543.5,61.5 C 544.906,61.9731 545.573,62.9731 545.5,64.5C 544.094,64.0269 543.427,63.0269 543.5,61.5 Z"/></g>
<g><path style="opacity:0.507" fill="#fefffe" d="M 453.5,64.5 C 453.573,66.0269 452.906,67.0269 451.5,67.5C 451.427,65.9731 452.094,64.9731 453.5,64.5 Z"/></g>
<g><path style="opacity:0.507" fill="#fefffe" d="M 545.5,64.5 C 546.906,64.9731 547.573,65.9731 547.5,67.5C 546.833,67.1667 546.167,66.8333 545.5,66.5C 545.5,65.8333 545.5,65.1667 545.5,64.5 Z"/></g>
<g><path style="opacity:0.478" fill="#fefffe" d="M 451.5,67.5 C 451.573,69.0269 450.906,70.0269 449.5,70.5C 449.427,68.9731 450.094,67.9731 451.5,67.5 Z"/></g>
<g><path style="opacity:0.478" fill="#fefffe" d="M 547.5,67.5 C 548.906,67.9731 549.573,68.9731 549.5,70.5C 548.094,70.0269 547.427,69.0269 547.5,67.5 Z"/></g>
<g><path style="opacity:1" fill="#5cc1ff" d="M 367.5,50.5 C 367.511,52.0174 368.177,53.1841 369.5,54C 371.5,55.3333 373.5,56.6667 375.5,58C 374.944,58.3826 374.611,58.8826 374.5,59.5C 350.794,69.6793 326.794,79.3459 302.5,88.5C 299.399,84.6167 295.399,82.2833 290.5,81.5C 315.863,70.5968 341.53,60.2635 367.5,50.5 Z"/></g>
<g><path style="opacity:0.437" fill="#fefffe" d="M 463.5,69.5 C 463.573,71.0269 462.906,72.0269 461.5,72.5C 461.427,70.9731 462.094,69.9731 463.5,69.5 Z"/></g>
<g><path style="opacity:0.437" fill="#fefffe" d="M 535.5,69.5 C 536.906,69.9731 537.573,70.9731 537.5,72.5C 536.094,72.0269 535.427,71.0269 535.5,69.5 Z"/></g>
<g><path style="opacity:0.46" fill="#fefffe" d="M 449.5,70.5 C 449.443,71.609 449.11,72.609 448.5,73.5C 448.167,73.5 447.833,73.5 447.5,73.5C 447.427,71.9731 448.094,70.9731 449.5,70.5 Z"/></g>
<g><path style="opacity:0.46" fill="#fefffe" d="M 549.5,70.5 C 550.906,70.9731 551.573,71.9731 551.5,73.5C 550.094,73.0269 549.427,72.0269 549.5,70.5 Z"/></g>
<g><path style="opacity:0.467" fill="#fefffe" d="M 461.5,72.5 C 461.573,74.0269 460.906,75.0269 459.5,75.5C 459.427,73.9731 460.094,72.9731 461.5,72.5 Z"/></g>
<g><path style="opacity:0.467" fill="#fefffe" d="M 537.5,72.5 C 538.906,72.9731 539.573,73.9731 539.5,75.5C 538.094,75.0269 537.427,74.0269 537.5,72.5 Z"/></g>
<g><path style="opacity:0.428" fill="#fefffe" d="M 447.5,73.5 C 447.573,75.0269 446.906,76.0269 445.5,76.5C 445.427,74.9731 446.094,73.9731 447.5,73.5 Z"/></g>
<g><path style="opacity:0.428" fill="#fefffe" d="M 551.5,73.5 C 552.906,73.9731 553.573,74.9731 553.5,76.5C 552.094,76.0269 551.427,75.0269 551.5,73.5 Z"/></g>
<g><path style="opacity:0.488" fill="#fefffe" d="M 459.5,75.5 C 459.573,77.0269 458.906,78.0269 457.5,78.5C 457.427,76.9731 458.094,75.9731 459.5,75.5 Z"/></g>
<g><path style="opacity:0.488" fill="#fefffe" d="M 539.5,75.5 C 540.906,75.9731 541.573,76.9731 541.5,78.5C 540.094,78.0269 539.427,77.0269 539.5,75.5 Z"/></g>
<g><path style="opacity:0.513" fill="#fefffe" d="M 456.5,78.5 C 456.833,78.5 457.167,78.5 457.5,78.5C 457.573,80.0269 456.906,81.0269 455.5,81.5C 455.557,80.391 455.89,79.391 456.5,78.5 Z"/></g>
<g><path style="opacity:0.513" fill="#fefffe" d="M 541.5,78.5 C 542.906,78.9731 543.573,79.9731 543.5,81.5C 542.094,81.0269 541.427,80.0269 541.5,78.5 Z"/></g>
<g><path style="opacity:0.394" fill="#e9feff" d="M 455.5,81.5 C 455.573,83.0269 454.906,84.0269 453.5,84.5C 453.427,82.9731 454.094,81.9731 455.5,81.5 Z"/></g>
<g><path style="opacity:0.394" fill="#e9feff" d="M 543.5,81.5 C 544.906,81.9731 545.573,82.9731 545.5,84.5C 544.094,84.0269 543.427,83.0269 543.5,81.5 Z"/></g>
<g><path style="opacity:0.395" fill="#fcfeff" d="M 696.5,88.5 C 698.553,88.4021 700.22,89.0687 701.5,90.5C 699.447,90.5979 697.78,89.9313 696.5,88.5 Z"/></g>
<g><path style="opacity:0.435" fill="#e1fbff" d="M 562.5,90.5 C 563.906,90.9731 564.573,91.9731 564.5,93.5C 563.094,93.0269 562.427,92.0269 562.5,90.5 Z"/></g>
<g><path style="opacity:0.392" fill="#f7feff" d="M 701.5,90.5 C 703.553,90.4021 705.22,91.0687 706.5,92.5C 704.447,92.5979 702.78,91.9313 701.5,90.5 Z"/></g>
<g><path style="opacity:0.395" fill="#f7feff" d="M 706.5,92.5 C 708.553,92.4021 710.22,93.0687 711.5,94.5C 709.447,94.5979 707.78,93.9313 706.5,92.5 Z"/></g>
<g><path style="opacity:0.396" fill="#e1fbff" d="M 564.5,93.5 C 565.906,93.9731 566.573,94.9731 566.5,96.5C 565.094,96.0269 564.427,95.0269 564.5,93.5 Z"/></g>
<g><path style="opacity:1" fill="#5dccff" d="M 290.5,81.5 C 295.399,82.2833 299.399,84.6167 302.5,88.5C 280.482,98.0667 258.149,107.067 235.5,115.5C 231.88,111.857 227.547,109.523 222.5,108.5C 244.885,98.9808 267.552,89.9808 290.5,81.5 Z"/></g>
<g><path style="opacity:0.41" fill="#f7feff" d="M 711.5,94.5 C 713.553,94.4021 715.22,95.0687 716.5,96.5C 714.447,96.5979 712.78,95.9313 711.5,94.5 Z"/></g>
<g><path style="opacity:0.937" fill="#f0feff" d="M 432.5,96.5 C 432.573,98.0269 431.906,99.0269 430.5,99.5C 430.427,97.9731 431.094,96.9731 432.5,96.5 Z"/></g>
<g><path style="opacity:1" fill="#46b8ff" d="M 447.5,73.5 C 447.833,73.5 448.167,73.5 448.5,73.5C 451.167,75.1667 453.833,76.8333 456.5,78.5C 455.89,79.391 455.557,80.391 455.5,81.5C 454.094,81.9731 453.427,82.9731 453.5,84.5C 449.662,91.5159 445.328,98.1826 440.5,104.5C 439.094,104.973 438.427,105.973 438.5,107.5C 437.094,107.973 436.427,108.973 436.5,110.5C 434.596,110.738 433.262,111.738 432.5,113.5C 424.493,117.732 416.159,121.398 407.5,124.5C 403.114,121.752 398.781,119.085 394.5,116.5C 391.921,113.865 388.921,111.699 385.5,110C 384.748,109.329 384.414,108.496 384.5,107.5C 398.977,105.021 413.643,102.854 428.5,101C 429.044,100.283 429.711,99.7828 430.5,99.5C 431.906,99.0269 432.573,98.0269 432.5,96.5C 436.338,89.4841 440.672,82.8174 445.5,76.5C 446.906,76.0269 447.573,75.0269 447.5,73.5 Z"/></g>
<g><path style="opacity:0.384" fill="#f7feff" d="M 566.5,96.5 C 567.906,96.9731 568.573,97.9731 568.5,99.5C 567.094,99.0269 566.427,98.0269 566.5,96.5 Z"/></g>
<g><path style="opacity:0.403" fill="#f4fdff" d="M 716.5,96.5 C 718.553,96.4021 720.22,97.0687 721.5,98.5C 719.447,98.5979 717.78,97.9313 716.5,96.5 Z"/></g>
<g><path style="opacity:0.414" fill="#f7feff" d="M 721.5,98.5 C 723.553,98.4021 725.22,99.0687 726.5,100.5C 724.447,100.598 722.78,99.9313 721.5,98.5 Z"/></g>
<g><path style="opacity:0.425" fill="#f4fdff" d="M 726.5,100.5 C 728.553,100.402 730.22,101.069 731.5,102.5C 729.447,102.598 727.78,101.931 726.5,100.5 Z"/></g>
<g><path style="opacity:0.447" fill="#fefffe" d="M 440.5,104.5 C 440.573,106.027 439.906,107.027 438.5,107.5C 438.427,105.973 439.094,104.973 440.5,104.5 Z"/></g>
<g><path style="opacity:0.447" fill="#fefffe" d="M 558.5,104.5 C 559.906,104.973 560.573,105.973 560.5,107.5C 559.094,107.027 558.427,106.027 558.5,104.5 Z"/></g>
<g><path style="opacity:0.434" fill="#f4fdff" d="M 736.5,104.5 C 738.553,104.402 740.22,105.069 741.5,106.5C 739.447,106.598 737.78,105.931 736.5,104.5 Z"/></g>
<g><path style="opacity:1" fill="#5ba8ff" d="M 607.5,106.5 C 634.721,109.533 661.721,113.199 688.5,117.5C 687.448,117.351 686.448,117.517 685.5,118C 691.153,121.965 696.486,126.131 701.5,130.5C 674.611,127.474 647.944,123.807 621.5,119.5C 615.901,115.354 610.234,111.188 604.5,107C 605.448,106.517 606.448,106.351 607.5,106.5 Z"/></g>
<g><path style="opacity:0.455" fill="#fefffe" d="M 438.5,107.5 C 438.573,109.027 437.906,110.027 436.5,110.5C 436.427,108.973 437.094,107.973 438.5,107.5 Z"/></g>
<g><path style="opacity:0.455" fill="#fefffe" d="M 560.5,107.5 C 561.906,107.973 562.573,108.973 562.5,110.5C 561.094,110.027 560.427,109.027 560.5,107.5 Z"/></g>
<g><path style="opacity:1" fill="#5cd3ff" d="M 222.5,108.5 C 227.547,109.523 231.88,111.857 235.5,115.5C 222.46,121.346 209.126,126.679 195.5,131.5C 194.833,131.5 194.167,131.5 193.5,131.5C 190.35,128.421 186.683,126.087 182.5,124.5C 195.54,118.654 208.874,113.321 222.5,108.5 Z"/></g>
<g><path style="opacity:1" fill="#5ac3ff" d="M 384.5,107.5 C 384.414,108.496 384.748,109.329 385.5,110C 388.921,111.699 391.921,113.865 394.5,116.5C 393.508,116.328 392.842,116.662 392.5,117.5C 389.941,117.198 387.607,117.532 385.5,118.5C 373.388,120.801 361.054,122.467 348.5,123.5C 349.609,122.71 350.942,122.21 352.5,122C 348.258,119.39 344.258,116.557 340.5,113.5C 354.946,110.859 369.613,108.859 384.5,107.5 Z"/></g>
<g><path style="opacity:0.502" fill="#fefffe" d="M 436.5,110.5 C 435.738,112.262 434.404,113.262 432.5,113.5C 433.262,111.738 434.596,110.738 436.5,110.5 Z"/></g>
<g><path style="opacity:0.502" fill="#fefffe" d="M 562.5,110.5 C 564.404,110.738 565.738,111.738 566.5,113.5C 564.596,113.262 563.262,112.262 562.5,110.5 Z"/></g>
<g><path style="opacity:1" fill="#3e90ff" d="M 788.5,113.5 C 790.553,113.402 792.22,114.069 793.5,115.5C 794.78,116.931 796.447,117.598 798.5,117.5C 800.553,117.402 802.22,118.069 803.5,119.5C 804.78,120.931 806.447,121.598 808.5,121.5C 809.78,122.931 811.447,123.598 813.5,123.5C 814.78,124.931 816.447,125.598 818.5,125.5C 819.78,126.931 821.447,127.598 823.5,127.5C 825.403,127.796 827.07,128.463 828.5,129.5C 829.78,130.931 831.447,131.598 833.5,131.5C 841.894,134.352 850.061,137.685 858,141.5C 861.605,150.818 865.105,160.152 868.5,169.5C 861.43,166.123 854.763,161.957 848.5,157C 847.552,156.517 846.552,156.351 845.5,156.5C 845.5,154.167 845.5,151.833 845.5,149.5C 844.167,149.5 842.833,149.5 841.5,149.5C 838.941,149.802 836.607,149.468 834.5,148.5C 819.76,136.951 804.426,126.118 788.5,116C 786.158,114.608 786.158,113.775 788.5,113.5 Z"/></g>
<g><path style="opacity:1" fill="#5ec8ff" d="M 340.5,113.5 C 344.258,116.557 348.258,119.39 352.5,122C 350.942,122.21 349.609,122.71 348.5,123.5C 334.055,126.134 319.388,128.134 304.5,129.5C 304.611,128.883 304.944,128.383 305.5,128C 301.89,126.056 298.557,123.723 295.5,121C 293.19,120.503 290.857,120.337 288.5,120.5C 305.602,117.439 322.935,115.106 340.5,113.5 Z"/></g>
<g><path style="opacity:0.417" fill="#ebfcff" d="M 793.5,115.5 C 795.553,115.402 797.22,116.069 798.5,117.5C 796.447,117.598 794.78,116.931 793.5,115.5 Z"/></g>
<g><path style="opacity:0.673" fill="#fbfeff" d="M 606.5,117.5 C 605.833,117.5 605.5,117.833 605.5,118.5C 604.078,118.291 602.745,117.791 601.5,117C 603.387,116.22 605.054,116.387 606.5,117.5 Z"/></g>
<g><path style="opacity:0.487" fill="#fefffe" d="M 385.5,118.5 C 387.607,117.532 389.941,117.198 392.5,117.5C 392.5,118.167 392.833,118.5 393.5,118.5C 392.791,119.404 391.791,119.737 390.5,119.5C 389.081,118.549 387.415,118.216 385.5,118.5 Z"/></g>
<g><path style="opacity:0.487" fill="#fefffe" d="M 606.5,117.5 C 609.059,117.198 611.393,117.532 613.5,118.5C 611.585,118.216 609.919,118.549 608.5,119.5C 607.209,119.737 606.209,119.404 605.5,118.5C 606.167,118.5 606.5,118.167 606.5,117.5 Z"/></g>
<g><path style="opacity:1" fill="#5da3ff" d="M 688.5,117.5 C 710.722,119.86 732.722,122.86 754.5,126.5C 752.801,126.34 751.134,126.506 749.5,127C 755.59,131.7 761.923,135.866 768.5,139.5C 746.04,137.148 723.706,134.148 701.5,130.5C 696.486,126.131 691.153,121.965 685.5,118C 686.448,117.517 687.448,117.351 688.5,117.5 Z"/></g>
<g><path style="opacity:0.42" fill="#eefeff" d="M 803.5,119.5 C 805.553,119.402 807.22,120.069 808.5,121.5C 806.447,121.598 804.78,120.931 803.5,119.5 Z"/></g>
<g><path style="opacity:1" fill="#57ccff" d="M 288.5,120.5 C 290.857,120.337 293.19,120.503 295.5,121C 298.557,123.723 301.89,126.056 305.5,128C 304.944,128.383 304.611,128.883 304.5,129.5C 292.388,131.801 280.054,133.467 267.5,134.5C 261.331,133.08 255.998,130.08 251.5,125.5C 263.612,123.199 275.946,121.533 288.5,120.5 Z"/></g>
<g><path style="opacity:0.399" fill="#eefeff" d="M 808.5,121.5 C 810.553,121.402 812.22,122.069 813.5,123.5C 811.447,123.598 809.78,122.931 808.5,121.5 Z"/></g>
<g><path style="opacity:0.408" fill="#eefeff" d="M 813.5,123.5 C 815.553,123.402 817.22,124.069 818.5,125.5C 816.447,125.598 814.78,124.931 813.5,123.5 Z"/></g>
<g><path style="opacity:1" fill="#4bd7ff" d="M 182.5,124.5 C 186.683,126.087 190.35,128.421 193.5,131.5C 191.641,132.594 189.641,133.427 187.5,134C 190.826,134.172 194.159,134.005 197.5,133.5C 201.457,136.122 205.124,139.122 208.5,142.5C 191.722,145.468 174.722,147.801 157.5,149.5C 156.167,149.5 154.833,149.5 153.5,149.5C 153.5,151.833 153.5,154.167 153.5,156.5C 153.824,163.354 153.491,170.021 152.5,176.5C 149.167,174.167 145.833,171.833 142.5,169.5C 142.167,169.5 141.833,169.5 141.5,169.5C 139.188,167.364 136.688,165.364 134,163.5C 133.617,164.056 133.117,164.389 132.5,164.5C 135.352,156.106 138.685,147.939 142.5,140C 155.896,134.925 169.23,129.758 182.5,124.5 Z"/></g>
<g><path style="opacity:0.4" fill="#fafeff" d="M 818.5,125.5 C 820.553,125.402 822.22,126.069 823.5,127.5C 821.447,127.598 819.78,126.931 818.5,125.5 Z"/></g>
<g><path style="opacity:1" fill="#5ed3ff" d="M 251.5,125.5 C 255.998,130.08 261.331,133.08 267.5,134.5C 248.044,137.725 228.377,140.392 208.5,142.5C 205.124,139.122 201.457,136.122 197.5,133.5C 198.492,133.672 199.158,133.338 199.5,132.5C 216.719,129.612 234.052,127.279 251.5,125.5 Z"/></g>
<g><path style="opacity:0.393" fill="#f5feff" d="M 828.5,129.5 C 830.553,129.402 832.22,130.069 833.5,131.5C 831.447,131.598 829.78,130.931 828.5,129.5 Z"/></g>
<g><path style="opacity:0.545" fill="#fdfeff" d="M 193.5,131.5 C 194.167,131.5 194.833,131.5 195.5,131.5C 196.568,132.434 197.901,132.768 199.5,132.5C 199.158,133.338 198.492,133.672 197.5,133.5C 194.159,134.005 190.826,134.172 187.5,134C 189.641,133.427 191.641,132.594 193.5,131.5 Z"/></g>
<g><path style="opacity:1" fill="#5cc6ff" d="M 392.5,117.5 C 392.842,116.662 393.508,116.328 394.5,116.5C 398.781,119.085 403.114,121.752 407.5,124.5C 385.133,134.678 362.466,144.345 339.5,153.5C 339.489,151.983 338.823,150.816 337.5,150C 335.138,148.489 332.805,146.989 330.5,145.5C 350.199,136.322 370.199,127.655 390.5,119.5C 391.791,119.737 392.791,119.404 393.5,118.5C 392.833,118.5 392.5,118.167 392.5,117.5 Z"/></g>
<g><path style="opacity:0.545" fill="#fdfeff" d="M 803.5,131.5 C 806.237,132.031 808.904,132.864 811.5,134C 807.3,134.279 803.3,133.779 799.5,132.5C 801.099,132.768 802.432,132.434 803.5,131.5 Z"/></g>
<g><path style="opacity:1" fill="#5aa8ff" d="M 652.5,138.5 C 700.599,158.702 748.599,179.202 796.5,200C 802.199,215.264 807.199,230.764 811.5,246.5C 811.5,247.5 811.5,248.5 811.5,249.5C 807.326,246.912 802.993,244.579 798.5,242.5C 794.718,231.156 790.718,219.823 786.5,208.5C 752.627,194.057 718.96,179.391 685.5,164.5C 674.831,155.641 663.498,147.475 651.5,140C 650.288,138.893 650.621,138.393 652.5,138.5 Z"/></g>
<g><path style="opacity:1" fill="#5ccdff" d="M 330.5,145.5 C 332.805,146.989 335.138,148.489 337.5,150C 338.823,150.816 339.489,151.983 339.5,153.5C 329.801,158.345 319.801,162.678 309.5,166.5C 305.997,163.333 301.997,161 297.5,159.5C 308.109,154.07 319.109,149.403 330.5,145.5 Z"/></g>
<g><path style="opacity:0.206" fill="#fefffe" d="M 157.5,149.5 C 156.791,150.404 155.791,150.737 154.5,150.5C 154.795,152.735 154.461,154.735 153.5,156.5C 153.5,154.167 153.5,151.833 153.5,149.5C 154.833,149.5 156.167,149.5 157.5,149.5 Z"/></g>
<g><path style="opacity:0.206" fill="#fefffe" d="M 841.5,149.5 C 842.833,149.5 844.167,149.5 845.5,149.5C 845.5,151.833 845.5,154.167 845.5,156.5C 844.539,154.735 844.205,152.735 844.5,150.5C 843.209,150.737 842.209,150.404 841.5,149.5 Z"/></g>
<g><path style="opacity:1" fill="#599eff" d="M 845.5,156.5 C 846.552,156.351 847.552,156.517 848.5,157C 854.763,161.957 861.43,166.123 868.5,169.5C 882.737,203.531 896.403,237.864 909.5,272.5C 904.435,269.547 899.601,266.213 895,262.5C 894.536,263.094 894.369,263.761 894.5,264.5C 882.314,235.448 870.647,206.115 859.5,176.5C 859.672,175.508 859.338,174.842 858.5,174.5C 858.509,172.692 858.009,171.025 857,169.5C 856.211,171.712 856.378,173.712 857.5,175.5C 857.176,182.354 857.509,189.021 858.5,195.5C 860.157,215.313 861.157,235.313 861.5,255.5C 860.833,249.986 860.167,244.319 859.5,238.5C 856.193,236.36 853.026,234.026 850,231.5C 849.506,233.134 849.34,234.801 849.5,236.5C 847.509,210.021 846.176,183.354 845.5,156.5 Z"/></g>
<g><path style="opacity:1" fill="#5ed3ff" d="M 297.5,159.5 C 301.997,161 305.997,163.333 309.5,166.5C 295.8,173.012 281.8,179.012 267.5,184.5C 268.598,183.603 268.598,182.77 267.5,182C 264.233,179.865 260.899,178.031 257.5,176.5C 270.534,170.322 283.867,164.655 297.5,159.5 Z"/></g>
<g><path style="opacity:0.73" fill="#fbfeff" d="M 141.5,169.5 C 141.833,169.5 142.167,169.5 142.5,169.5C 142.784,171.415 142.451,173.081 141.5,174.5C 141.167,174.5 140.833,174.5 140.5,174.5C 140.629,172.784 140.962,171.117 141.5,169.5 Z"/></g>
<g><path style="opacity:0.73" fill="#f1feff" d="M 858.5,174.5 C 857.833,174.5 857.5,174.833 857.5,175.5C 856.378,173.712 856.211,171.712 857,169.5C 858.009,171.025 858.509,172.692 858.5,174.5 Z"/></g>
<g><path style="opacity:0.48" fill="#fefffe" d="M 140.5,174.5 C 140.5,175.167 140.833,175.5 141.5,175.5C 141.823,182.022 141.49,188.355 140.5,194.5C 140.823,188.31 140.49,182.31 139.5,176.5C 139.328,175.508 139.662,174.842 140.5,174.5 Z"/></g>
<g><path style="opacity:0.48" fill="#f9feff" d="M 858.5,174.5 C 859.338,174.842 859.672,175.508 859.5,176.5C 858.51,182.645 858.177,188.978 858.5,195.5C 857.509,189.021 857.176,182.354 857.5,175.5C 858.167,175.5 858.5,175.167 858.5,174.5 Z"/></g>
<g><path style="opacity:1" fill="#5ddcff" d="M 257.5,176.5 C 260.899,178.031 264.233,179.865 267.5,182C 268.598,182.77 268.598,183.603 267.5,184.5C 249.373,192.724 231.04,200.724 212.5,208.5C 210.962,211.148 209.628,213.815 208.5,216.5C 206.712,213.883 204.378,211.716 201.5,210C 200.212,209.761 199.212,210.261 198.5,211.5C 199.137,207.422 200.47,203.589 202.5,200C 220.653,191.674 238.986,183.84 257.5,176.5 Z"/></g>
<g><path style="opacity:1" fill="#5ee6ff" d="M 141.5,169.5 C 140.962,171.117 140.629,172.784 140.5,174.5C 139.662,174.842 139.328,175.508 139.5,176.5C 132.932,195.216 125.599,213.549 117.5,231.5C 117.719,230.325 117.386,229.325 116.5,228.5C 114.063,227.197 111.896,225.53 110,223.5C 109.617,224.056 109.117,224.389 108.5,224.5C 115.987,204.207 123.987,184.207 132.5,164.5C 133.117,164.389 133.617,164.056 134,163.5C 136.688,165.364 139.188,167.364 141.5,169.5 Z"/></g>
<g><path style="opacity:1" fill="#5de6ff" d="M 142.5,169.5 C 145.833,171.833 149.167,174.167 152.5,176.5C 151.824,203.354 150.491,230.021 148.5,256.5C 148.662,254.473 148.495,252.473 148,250.5C 145,248.167 142,245.833 139,243.5C 138.823,247.356 138.323,251.023 137.5,254.5C 137.904,234.413 138.904,214.413 140.5,194.5C 141.49,188.355 141.823,182.022 141.5,175.5C 141.5,175.167 141.5,174.833 141.5,174.5C 142.451,173.081 142.784,171.415 142.5,169.5 Z"/></g>
<g><path style="opacity:1" fill="#60eeff" d="M 117.5,231.5 C 114.07,241.803 110.07,251.803 105.5,261.5C 103.902,257.516 100.902,255.183 96.5,254.5C 99.9873,244.207 103.987,234.207 108.5,224.5C 109.117,224.389 109.617,224.056 110,223.5C 111.896,225.53 114.063,227.197 116.5,228.5C 117.386,229.325 117.719,230.325 117.5,231.5 Z"/></g>
<g><path style="opacity:1" fill="#01befe" d="M 492.5,225.5 C 497.145,225.429 501.478,226.096 505.5,227.5C 550.535,259.191 595.868,290.524 641.5,321.5C 644.808,336.062 647.475,350.728 649.5,365.5C 586.201,322.191 523.201,278.524 460.5,234.5C 465.944,232.996 471.444,231.33 477,229.5C 478.461,230.883 479.294,230.549 479.5,228.5C 483.029,228.846 486.529,228.179 490,226.5C 491.461,227.883 492.294,227.549 492.5,225.5 Z"/></g>
<g><path style="opacity:1" fill="#00b8fe" d="M 505.5,227.5 C 508.313,227.548 510.979,228.215 513.5,229.5C 517.412,229.546 521.745,230.546 526.5,232.5C 527.183,232.137 527.85,231.804 528.5,231.5C 528.706,233.549 529.539,233.883 531,232.5C 534.471,234.179 537.971,234.846 541.5,234.5C 546.488,236.822 551.821,238.155 557.5,238.5C 568.345,241.63 579.345,244.63 590.5,247.5C 591.086,247.291 591.586,246.957 592,246.5C 600.198,248.94 608.365,251.273 616.5,253.5C 617.086,253.291 617.586,252.957 618,252.5C 621.524,253.757 625.024,255.09 628.5,256.5C 630.896,262.823 632.229,269.156 632.5,275.5C 635.799,290.991 638.799,306.325 641.5,321.5C 595.868,290.524 550.535,259.191 505.5,227.5 Z"/></g>
<g><path style="opacity:0.98" fill="#b3b9b9" d="M 492.5,225.5 C 495.976,224.357 499.642,224.19 503.5,225C 512.079,226.727 520.412,228.894 528.5,231.5C 527.85,231.804 527.183,232.137 526.5,232.5C 521.745,230.546 517.412,229.546 513.5,229.5C 510.979,228.215 508.313,227.548 505.5,227.5C 501.478,226.096 497.145,225.429 492.5,225.5 Z"/></g>
<g><path style="opacity:1" fill="#b9baba" d="M 492.5,225.5 C 492.294,227.549 491.461,227.883 490,226.5C 486.529,228.179 483.029,228.846 479.5,228.5C 483.542,226.763 487.876,225.763 492.5,225.5 Z"/></g>
<g><path style="opacity:1" fill="#5da8ff" d="M 861.5,255.5 C 862.824,268.646 863.491,281.979 863.5,295.5C 862.679,292.359 862.179,289.025 862,285.5C 859,283.167 856,280.833 853,278.5C 852.501,284.491 852.334,290.491 852.5,296.5C 850.843,276.687 849.843,256.687 849.5,236.5C 849.34,234.801 849.506,233.134 850,231.5C 853.026,234.026 856.193,236.36 859.5,238.5C 860.167,244.319 860.833,249.986 861.5,255.5 Z"/></g>
<g><path style="opacity:1" fill="#bcbfbf" d="M 479.5,228.5 C 479.294,230.549 478.461,230.883 477,229.5C 471.444,231.33 465.944,232.996 460.5,234.5C 452.566,235.967 444.899,237.301 437.5,238.5C 451.129,234.109 465.129,230.776 479.5,228.5 Z"/></g>
<g><path style="opacity:1" fill="#b8bdbd" d="M 528.5,231.5 C 533.124,231.763 537.458,232.763 541.5,234.5C 537.971,234.846 534.471,234.179 531,232.5C 529.539,233.883 528.706,233.549 528.5,231.5 Z"/></g>
<g><path style="opacity:1" fill="#00c4fe" d="M 460.5,234.5 C 523.201,278.524 586.201,322.191 649.5,365.5C 652.084,378.568 654.417,391.901 656.5,405.5C 577.993,351.747 499.659,297.747 421.5,243.5C 426.788,241.761 432.122,240.095 437.5,238.5C 444.899,237.301 452.566,235.967 460.5,234.5 Z"/></g>
<g><path style="opacity:1" fill="#bac0c0" d="M 541.5,234.5 C 547.245,234.603 552.578,235.936 557.5,238.5C 551.821,238.155 546.488,236.822 541.5,234.5 Z"/></g>
<g><path style="opacity:0.009" fill="#fefffe" d="M 737.5,236.5 C 742.752,237.285 748.085,237.785 753.5,238C 747.339,239.62 741.006,239.953 734.5,239C 734.167,238.667 733.833,238.333 733.5,238C 735.058,237.79 736.391,237.29 737.5,236.5 Z"/></g>
<g><path style="opacity:0.007" fill="#fefffe" d="M 246.5,238.5 C 247.601,237.402 248.934,237.235 250.5,238C 249.318,239.768 247.985,239.935 246.5,238.5 Z"/></g>
<g><path style="opacity:1" fill="#60e6ff" d="M 208.5,216.5 C 202.406,238.111 195.739,259.444 188.5,280.5C 186.663,276.714 183.663,274.047 179.5,272.5C 185.261,251.889 191.594,231.556 198.5,211.5C 199.212,210.261 200.212,209.761 201.5,210C 204.378,211.716 206.712,213.883 208.5,216.5 Z"/></g>
<g><path style="opacity:0.698" fill="#aeb1b1" d="M 437.5,238.5 C 432.122,240.095 426.788,241.761 421.5,243.5C 420.504,243.586 419.671,243.252 419,242.5C 418.395,244.481 417.395,244.815 416,243.5C 412.741,245.322 409.408,245.989 406,245.5C 405.395,247.481 404.395,247.815 403,246.5C 399.529,248.179 396.029,248.846 392.5,248.5C 404.96,245.024 417.626,241.858 430.5,239C 432.81,238.503 435.143,238.337 437.5,238.5 Z"/></g>
<g><path style="opacity:1" fill="#48ecff" d="M 148.5,256.5 C 148.795,263.588 148.462,270.588 147.5,277.5C 146.679,280.641 146.179,283.975 146,287.5C 143.305,285.306 140.472,283.306 137.5,281.5C 136.534,279.604 136.201,277.604 136.5,275.5C 136.205,268.412 136.538,261.412 137.5,254.5C 138.323,251.023 138.823,247.356 139,243.5C 142,245.833 145,248.167 148,250.5C 148.495,252.473 148.662,254.473 148.5,256.5 Z"/></g>
<g><path style="opacity:1" fill="#01cbfe" d="M 421.5,243.5 C 499.659,297.747 577.993,351.747 656.5,405.5C 657.415,410.685 658.749,416.018 660.5,421.5C 660.753,428.715 662.086,435.882 664.5,443C 663.075,444.714 663.408,446.047 665.5,447C 664.978,447.561 664.645,448.228 664.5,449C 665.406,451.791 666.073,454.624 666.5,457.5C 621.688,426.923 577.022,396.09 532.5,365C 528.817,362.128 524.817,359.962 520.5,358.5C 513.331,346.162 506.165,333.829 499,321.5C 496.392,326.397 493.559,331.063 490.5,335.5C 450.811,308.991 411.478,281.991 372.5,254.5C 374.888,253.651 377.221,252.651 379.5,251.5C 383.029,251.846 386.529,251.179 390,249.5C 391.461,250.883 392.294,250.549 392.5,248.5C 396.029,248.846 399.529,248.179 403,246.5C 404.395,247.815 405.395,247.481 406,245.5C 409.408,245.989 412.741,245.322 416,243.5C 417.395,244.815 418.395,244.481 419,242.5C 419.671,243.252 420.504,243.586 421.5,243.5 Z"/></g>
<g><path style="opacity:0.478" fill="#f6fdff" d="M 811.5,246.5 C 812.924,248.515 813.59,250.848 813.5,253.5C 812.655,252.329 811.989,250.995 811.5,249.5C 811.5,248.5 811.5,247.5 811.5,246.5 Z"/></g>
<g><path style="opacity:1" fill="#bcbebe" d="M 392.5,248.5 C 392.294,250.549 391.461,250.883 390,249.5C 386.529,251.179 383.029,251.846 379.5,251.5C 383.542,249.763 387.876,248.763 392.5,248.5 Z"/></g>
<g><path style="opacity:0.467" fill="#effcff" d="M 801.5,251.5 C 802.924,253.515 803.59,255.848 803.5,258.5C 802.076,256.485 801.41,254.152 801.5,251.5 Z"/></g>
<g><path style="opacity:0.855" fill="#b4b4b4" d="M 379.5,251.5 C 377.221,252.651 374.888,253.651 372.5,254.5C 370.983,254.511 369.816,255.177 369,256.5C 368.302,259.004 367.469,261.337 366.5,263.5C 366.013,254.565 370.346,250.565 379.5,251.5 Z"/></g>
<g><path style="opacity:1" fill="#5ef5ff" d="M 96.5,254.5 C 100.902,255.183 103.902,257.516 105.5,261.5C 76.1659,336.663 46.3326,411.663 16,486.5C 15.3333,487.5 15.3333,488.5 16,489.5C 52.814,473.758 89.4807,457.758 126,441.5C 126.667,439.5 127.333,437.5 128,435.5C 130.508,381.991 133.342,328.658 136.5,275.5C 136.201,277.604 136.534,279.604 137.5,281.5C 140.472,283.306 143.305,285.306 146,287.5C 146.179,283.975 146.679,280.641 147.5,277.5C 146.429,310.92 144.762,344.254 142.5,377.5C 141.349,382.65 141.183,387.984 142,393.5C 142.813,391.564 143.313,389.564 143.5,387.5C 151.411,359.5 160.078,331.833 169.5,304.5C 172.516,305.343 175.183,306.843 177.5,309C 178.337,310.011 178.67,311.178 178.5,312.5C 165.976,354.239 153.143,395.906 140,437.5C 139.857,441.619 139.19,445.619 138,449.5C 99.7596,466.038 61.593,482.704 23.5,499.5C 61.593,516.296 99.7596,532.962 138,549.5C 138.885,556.978 140.552,564.312 143,571.5C 165.834,644.172 188.668,716.839 211.5,789.5C 285.758,821.756 360.091,853.922 434.5,886C 456.142,917.462 477.142,949.295 497.5,981.5C 498.833,985.5 500.167,985.5 501.5,981.5C 521.858,949.295 542.858,917.462 564.5,886C 638.384,853.891 712.384,822.058 786.5,790.5C 792.253,774.907 797.586,759.24 802.5,743.5C 803.423,742.697 804.423,742.53 805.5,743C 807.5,744.333 809.5,745.667 811.5,747C 812.252,747.671 812.586,748.504 812.5,749.5C 807.866,766.236 802.532,782.736 796.5,799C 733.928,826.121 671.261,852.954 608.5,879.5C 607.209,879.263 606.209,879.596 605.5,880.5C 605.5,881.167 605.833,881.5 606.5,881.5C 609.059,881.802 611.393,881.468 613.5,880.5C 689.292,869.626 765.292,859.293 841.5,849.5C 842.833,849.5 844.167,849.5 845.5,849.5C 845.5,847.167 845.5,844.833 845.5,842.5C 846.176,815.646 847.509,788.979 849.5,762.5C 849.335,766.182 849.501,769.848 850,773.5C 853,775.833 856,778.167 859,780.5C 859.173,774.984 859.673,769.651 860.5,764.5C 860.429,777.92 859.762,791.254 858.5,804.5C 857.51,810.645 857.177,816.978 857.5,823.5C 857.5,823.833 857.5,824.167 857.5,824.5C 856.387,825.946 856.22,827.613 857,829.5C 858.009,827.975 858.509,826.308 858.5,824.5C 859.338,824.158 859.672,823.492 859.5,822.5C 863.263,811.199 867.596,800.199 872.5,789.5C 875.81,791.482 878.81,793.815 881.5,796.5C 873.848,817.627 865.514,838.46 856.5,859C 739.614,905.567 622.947,952.4 506.5,999.5C 501.833,999.5 497.167,999.5 492.5,999.5C 375.32,952.331 258.154,904.998 141,857.5C 94.3331,739.519 47.1664,621.852 -0.5,504.5C -0.5,501.167 -0.5,497.833 -0.5,494.5C 31.8333,414.5 64.1667,334.5 96.5,254.5 Z M 140.5,804.5 C 140.823,810.69 140.49,816.69 139.5,822.5C 98.4701,718.583 57.1367,614.75 15.5,511C 52.385,525.004 89.2183,540.504 126,557.5C 126.667,559.5 127.333,561.5 128,563.5C 131.87,643.91 136.037,724.243 140.5,804.5 Z M 143.5,611.5 C 162.291,674.039 181.791,736.373 202,798.5C 264.665,825.917 327.499,852.917 390.5,879.5C 389.081,880.451 387.415,880.784 385.5,880.5C 309.708,869.626 233.708,859.293 157.5,849.5C 156.791,848.596 155.791,848.263 154.5,848.5C 154.795,846.265 154.461,844.265 153.5,842.5C 150.462,768.745 146.796,695.078 142.5,621.5C 142.187,617.958 142.521,614.625 143.5,611.5 Z M 195.5,867.5 C 196.568,866.566 197.901,866.232 199.5,866.5C 275.74,877.32 352.073,887.82 428.5,898C 447.167,926 465.833,954 484.5,982C 484,982.167 483.5,982.333 483,982.5C 387.202,944.015 291.368,905.682 195.5,867.5 Z M 799.5,866.5 C 801.099,866.232 802.432,866.566 803.5,867.5C 707.632,905.682 611.798,944.015 516,982.5C 515.5,982.333 515,982.167 514.5,982C 533.167,954 551.833,926 570.5,898C 646.927,887.82 723.26,877.32 799.5,866.5 Z"/></g>
<g><path style="opacity:1" fill="#01d1fe" d="M 372.5,254.5 C 411.478,281.991 450.811,308.991 490.5,335.5C 486.048,344.23 481.048,352.564 475.5,360.5C 438.167,335.167 400.833,309.833 363.5,284.5C 365.04,277.41 366.04,270.41 366.5,263.5C 367.469,261.337 368.302,259.004 369,256.5C 369.816,255.177 370.983,254.511 372.5,254.5 Z"/></g>
<g><path style="opacity:1" fill="#5aa7ff" d="M 909.5,272.5 C 918.07,292.197 926.07,312.197 933.5,332.5C 933.631,333.239 933.464,333.906 933,334.5C 928.286,330.946 923.453,327.613 918.5,324.5C 909.987,304.793 901.987,284.793 894.5,264.5C 894.369,263.761 894.536,263.094 895,262.5C 899.601,266.213 904.435,269.547 909.5,272.5 Z"/></g>
<g><path style="opacity:0.335" fill="#ebfcff" d="M 806.5,267.5 C 807.924,269.515 808.59,271.848 808.5,274.5C 807.076,272.485 806.41,270.152 806.5,267.5 Z"/></g>
<g><path style="opacity:1" fill="#61eeff" d="M 179.5,272.5 C 183.663,274.047 186.663,276.714 188.5,280.5C 185.739,291.444 182.406,302.111 178.5,312.5C 178.67,311.178 178.337,310.011 177.5,309C 175.183,306.843 172.516,305.343 169.5,304.5C 172.261,293.556 175.594,282.889 179.5,272.5 Z"/></g>
<g><path style="opacity:0.933" fill="#b6b6b6" d="M 366.5,263.5 C 366.04,270.41 365.04,277.41 363.5,284.5C 363.906,285.915 363.239,287.081 361.5,288C 362.378,290.658 362.044,293.158 360.5,295.5C 360.5,294.167 360.5,292.833 360.5,291.5C 362.047,281.95 364.047,272.617 366.5,263.5 Z"/></g>
<g><path style="opacity:1" fill="#01d7fe" d="M 363.5,284.5 C 400.833,309.833 438.167,335.167 475.5,360.5C 472.833,365.833 470.167,371.167 467.5,376.5C 464.474,380.205 461.808,384.205 459.5,388.5C 425.775,364.776 391.775,341.443 357.5,318.5C 356.89,317.609 356.557,316.609 356.5,315.5C 359.121,309.029 360.454,302.362 360.5,295.5C 362.044,293.158 362.378,290.658 361.5,288C 363.239,287.081 363.906,285.915 363.5,284.5 Z"/></g>
<g><path style="opacity:1" fill="#54afff" d="M 798.5,242.5 C 802.993,244.579 807.326,246.912 811.5,249.5C 811.989,250.995 812.655,252.329 813.5,253.5C 818.406,266.888 822.739,280.554 826.5,294.5C 826.41,297.152 827.076,299.485 828.5,301.5C 830.072,304.215 831.072,307.215 831.5,310.5C 831.41,313.152 832.076,315.485 833.5,317.5C 837.101,326.544 840.101,335.878 842.5,345.5C 838.657,342.497 834.657,339.664 830.5,337C 829.184,336.472 828.517,336.972 828.5,338.5C 826.463,333.383 824.796,328.05 823.5,322.5C 823.59,319.848 822.924,317.515 821.5,315.5C 816.594,302.112 812.261,288.446 808.5,274.5C 808.59,271.848 807.924,269.515 806.5,267.5C 804.928,264.785 803.928,261.785 803.5,258.5C 803.59,255.848 802.924,253.515 801.5,251.5C 799.928,248.785 798.928,245.785 798.5,242.5 Z"/></g>
<g><path style="opacity:0.335" fill="#f2fdff" d="M 826.5,294.5 C 827.924,296.515 828.59,298.848 828.5,301.5C 827.076,299.485 826.41,297.152 826.5,294.5 Z"/></g>
<g><path style="opacity:1" fill="#a3a4a4" d="M 360.5,291.5 C 360.5,292.833 360.5,294.167 360.5,295.5C 360.454,302.362 359.121,309.029 356.5,315.5C 357.215,307.278 358.548,299.278 360.5,291.5 Z"/></g>
<g><path style="opacity:0.465" fill="#f6fdff" d="M 831.5,310.5 C 832.924,312.515 833.59,314.848 833.5,317.5C 832.076,315.485 831.41,313.152 831.5,310.5 Z"/></g>
<g><path style="opacity:1" fill="#58b0ff" d="M 863.5,295.5 C 865.457,321.647 866.791,347.981 867.5,374.5C 866.675,370.353 866.175,366.019 866,361.5C 862.492,359.413 859.158,357.08 856,354.5C 855.536,355.094 855.369,355.761 855.5,356.5C 853.843,336.687 852.843,316.687 852.5,296.5C 852.334,290.491 852.501,284.491 853,278.5C 856,280.833 859,283.167 862,285.5C 862.179,289.025 862.679,292.359 863.5,295.5 Z"/></g>
<g><path style="opacity:0.478" fill="#effdff" d="M 821.5,315.5 C 822.924,317.515 823.59,319.848 823.5,322.5C 822.076,320.485 821.41,318.152 821.5,315.5 Z"/></g>
<g><path style="opacity:1" fill="#01ddfe" d="M 357.5,318.5 C 391.775,341.443 425.775,364.776 459.5,388.5C 454.308,396.78 449.308,405.113 444.5,413.5C 413.674,391.92 382.674,370.586 351.5,349.5C 350.957,349.44 350.624,349.107 350.5,348.5C 352.54,339.685 354.54,330.852 356.5,322C 356.355,321.228 356.022,320.561 355.5,320C 356.416,319.722 357.082,319.222 357.5,318.5 Z"/></g>
<g><path style="opacity:0.804" fill="#bebfbf" d="M 520.5,358.5 C 531.667,378.093 543,397.426 554.5,416.5C 555.63,418.315 556.296,420.315 556.5,422.5C 553.188,417.9 549.855,413.234 546.5,408.5C 530.934,380.247 515.1,352.247 499,324.5C 488.868,342.374 478.368,359.707 467.5,376.5C 470.167,371.167 472.833,365.833 475.5,360.5C 481.048,352.564 486.048,344.23 490.5,335.5C 493.559,331.063 496.392,326.397 499,321.5C 506.165,333.829 513.331,346.162 520.5,358.5 Z"/></g>
<g><path style="opacity:1" fill="#52b5ff" d="M 842.5,345.5 C 844.204,349.617 845.537,353.951 846.5,358.5C 846.41,361.152 847.076,363.485 848.5,365.5C 851.607,372.492 853.941,379.826 855.5,387.5C 855.5,388.167 855.5,388.833 855.5,389.5C 850.555,386.555 845.888,383.221 841.5,379.5C 839.928,376.785 838.928,373.785 838.5,370.5C 838.59,367.848 837.924,365.515 836.5,363.5C 833.078,355.503 830.411,347.169 828.5,338.5C 828.517,336.972 829.184,336.472 830.5,337C 834.657,339.664 838.657,342.497 842.5,345.5 Z"/></g>
<g><path style="opacity:0.718" fill="#b5b8b8" d="M 557.5,238.5 C 580.255,242.804 602.921,247.638 625.5,253C 627.421,253.36 629.088,254.194 630.5,255.5C 640.576,307.758 650.409,360.091 660,412.5C 660.498,415.482 660.665,418.482 660.5,421.5C 658.749,416.018 657.415,410.685 656.5,405.5C 654.417,391.901 652.084,378.568 649.5,365.5C 647.475,350.728 644.808,336.062 641.5,321.5C 638.799,306.325 635.799,290.991 632.5,275.5C 632.229,269.156 630.896,262.823 628.5,256.5C 625.024,255.09 621.524,253.757 618,252.5C 617.586,252.957 617.086,253.291 616.5,253.5C 608.365,251.273 600.198,248.94 592,246.5C 591.586,246.957 591.086,247.291 590.5,247.5C 579.345,244.63 568.345,241.63 557.5,238.5 Z"/></g>
<g><path style="opacity:1" fill="#01e3fe" d="M 351.5,349.5 C 382.674,370.586 413.674,391.92 444.5,413.5C 439.071,423.367 433.404,433.033 427.5,442.5C 399.851,423.859 372.184,405.192 344.5,386.5C 344.216,382.393 344.883,378.227 346.5,374C 346.872,367.726 348.206,361.059 350.5,354C 350.355,353.228 350.022,352.561 349.5,352C 350.756,351.583 351.423,350.75 351.5,349.5 Z"/></g>
<g><path style="opacity:1" fill="#45b2ff" d="M 867.5,374.5 C 868.462,381.412 868.795,388.412 868.5,395.5C 868.649,396.552 868.483,397.552 868,398.5C 864.701,395.774 861.201,393.441 857.5,391.5C 857.821,386.305 857.487,381.305 856.5,376.5C 855.509,370.021 855.176,363.354 855.5,356.5C 855.369,355.761 855.536,355.094 856,354.5C 859.158,357.08 862.492,359.413 866,361.5C 866.175,366.019 866.675,370.353 867.5,374.5 Z"/></g>
<g><path style="opacity:1" fill="#02d1fe" d="M 520.5,358.5 C 524.817,359.962 528.817,362.128 532.5,365C 577.022,396.09 621.688,426.923 666.5,457.5C 666.5,458.167 666.833,458.5 667.5,458.5C 667.461,459.583 667.127,460.583 666.5,461.5C 668.296,472.479 670.629,483.145 673.5,493.5C 672.842,494.398 672.176,495.398 671.5,496.5C 632.616,469.566 593.616,442.9 554.5,416.5C 543,397.426 531.667,378.093 520.5,358.5 Z"/></g>
<g><path style="opacity:0.471" fill="#f6feff" d="M 846.5,358.5 C 847.924,360.515 848.59,362.848 848.5,365.5C 847.076,363.485 846.41,361.152 846.5,358.5 Z"/></g>
<g><path style="opacity:0.475" fill="#f1feff" d="M 836.5,363.5 C 837.924,365.515 838.59,367.848 838.5,370.5C 837.076,368.485 836.41,366.152 836.5,363.5 Z"/></g>
<g><path style="opacity:1" fill="#5db1ff" d="M 918.5,324.5 C 923.453,327.613 928.286,330.946 933,334.5C 933.464,333.906 933.631,333.239 933.5,332.5C 948.266,367.117 962.266,402.117 975.5,437.5C 971.196,434.343 966.863,431.176 962.5,428C 961.184,427.472 960.517,427.972 960.5,429.5C 946.129,394.735 932.129,359.735 918.5,324.5 Z"/></g>
<g><path style="opacity:0.586" fill="#fefffe" d="M 142.5,377.5 C 142.187,381.042 142.521,384.375 143.5,387.5C 143.313,389.564 142.813,391.564 142,393.5C 141.183,387.984 141.349,382.65 142.5,377.5 Z"/></g>
<g><path style="opacity:0.586" fill="#f8feff" d="M 856.5,376.5 C 857.487,381.305 857.821,386.305 857.5,391.5C 857.631,392.239 857.464,392.906 857,393.5C 856.59,392.099 856.09,390.766 855.5,389.5C 855.5,388.833 855.5,388.167 855.5,387.5C 856.482,384.038 856.815,380.371 856.5,376.5 Z"/></g>
<g><path style="opacity:1" fill="#4dbaff" d="M 841.5,379.5 C 845.888,383.221 850.555,386.555 855.5,389.5C 856.09,390.766 856.59,392.099 857,393.5C 857.464,392.906 857.631,392.239 857.5,391.5C 861.201,393.441 864.701,395.774 868,398.5C 868.483,397.552 868.649,396.552 868.5,395.5C 869.66,408.656 870.493,421.99 871,435.5C 871.667,437.5 872.333,439.5 873,441.5C 875.173,442.933 877.34,444.266 879.5,445.5C 880.78,446.931 882.447,447.598 884.5,447.5C 885.492,447.328 886.158,447.662 886.5,448.5C 887.78,449.931 889.447,450.598 891.5,450.5C 892.492,450.328 893.158,450.662 893.5,451.5C 894.78,452.931 896.447,453.598 898.5,453.5C 899.492,453.328 900.158,453.662 900.5,454.5C 901.78,455.931 903.447,456.598 905.5,456.5C 919.8,461.988 933.8,467.988 947.5,474.5C 948.78,475.931 950.447,476.598 952.5,476.5C 953.492,476.328 954.158,476.662 954.5,477.5C 955.78,478.931 957.447,479.598 959.5,479.5C 960.492,479.328 961.158,479.662 961.5,480.5C 962.78,481.931 964.447,482.598 966.5,482.5C 972.136,484.322 977.469,486.655 982.5,489.5C 983.251,490.573 984.251,490.74 985.5,490C 984.915,488.698 984.249,487.531 983.5,486.5C 981.935,484.491 980.935,482.157 980.5,479.5C 980.281,478.325 980.614,477.325 981.5,476.5C 985.388,479.941 989.721,482.608 994.5,484.5C 996.167,487.833 997.833,491.167 999.5,494.5C 999.5,497.833 999.5,501.167 999.5,504.5C 995.639,512.75 991.972,521.084 988.5,529.5C 988.703,527.61 988.037,526.11 986.5,525C 984.667,523.833 982.833,522.667 981,521.5C 980.617,522.056 980.117,522.389 979.5,522.5C 980.263,518.863 981.597,515.53 983.5,512.5C 984.249,511.469 984.915,510.302 985.5,509C 984.251,508.26 983.251,508.427 982.5,509.5C 979.912,511.592 976.912,512.925 973.5,513.5C 971.801,513.66 970.134,513.494 968.5,513C 965.861,510.517 962.861,508.684 959.5,507.5C 959.842,506.662 960.508,506.328 961.5,506.5C 963.553,506.598 965.22,505.931 966.5,504.5C 966.842,503.662 967.508,503.328 968.5,503.5C 970.553,503.598 972.22,502.931 973.5,501.5C 973.842,500.662 974.508,500.328 975.5,500.5C 979.5,499.833 979.5,499.167 975.5,498.5C 974.508,498.672 973.842,498.338 973.5,497.5C 972.22,496.069 970.553,495.402 968.5,495.5C 967.508,495.672 966.842,495.338 966.5,494.5C 965.22,493.069 963.553,492.402 961.5,492.5C 942.533,485.012 923.866,477.012 905.5,468.5C 904.22,467.069 902.553,466.402 900.5,466.5C 887.049,461.525 873.882,455.859 861,449.5C 859.81,445.619 859.143,441.619 859,437.5C 852.854,418.232 847.021,398.899 841.5,379.5 Z"/></g>
<g><path style="opacity:1" fill="#02eafe" d="M 344.5,386.5 C 372.184,405.192 399.851,423.859 427.5,442.5C 424.595,447.976 421.428,453.309 418,458.5C 417.251,459.635 417.417,460.635 418.5,461.5C 438.659,470.832 458.492,480.832 478,491.5C 478.711,493.367 478.211,494.867 476.5,496C 467.173,496.5 457.839,496.666 448.5,496.5C 412.679,471.53 376.679,446.696 340.5,422C 339.177,421.184 338.511,420.017 338.5,418.5C 338.565,413.021 339.565,407.521 341.5,402C 341.355,401.228 341.022,400.561 340.5,400C 341.93,395.428 343.264,390.928 344.5,386.5 Z"/></g>
<g><path style="opacity:1" fill="#06d7fe" d="M 554.5,416.5 C 593.616,442.9 632.616,469.566 671.5,496.5C 672.176,495.398 672.842,494.398 673.5,493.5C 673.981,500.197 675.315,506.697 677.5,513C 676.978,513.561 676.645,514.228 676.5,515C 677.29,518.356 678.29,521.523 679.5,524.5C 680.167,530.167 680.833,535.833 681.5,541.5C 644.815,516.474 608.149,491.474 571.5,466.5C 573.349,465.407 575.016,464.074 576.5,462.5C 576.842,461.662 577.508,461.328 578.5,461.5C 579.043,461.44 579.376,461.107 579.5,460.5C 572.534,447.248 564.868,434.581 556.5,422.5C 556.296,420.315 555.63,418.315 554.5,416.5 Z"/></g>
<g><path style="opacity:1" fill="#04f2fe" d="M 338.5,418.5 C 338.511,420.017 339.177,421.184 340.5,422C 376.679,446.696 412.679,471.53 448.5,496.5C 432.06,496.789 415.56,497.456 399,498.5C 396.154,511.738 392.987,525.238 389.5,539C 389.645,539.772 389.978,540.439 390.5,541C 389.017,544.923 387.684,548.923 386.5,553C 386.645,553.772 386.978,554.439 387.5,555C 386.017,558.923 384.684,562.923 383.5,567C 383.645,567.772 383.978,568.439 384.5,569C 382.519,569.605 382.185,570.605 383.5,572C 382.427,575.12 381.427,578.287 380.5,581.5C 381.718,582.803 381.385,583.803 379.5,584.5C 379.905,588.162 379.238,591.829 377.5,595.5C 377.709,596.086 378.043,596.586 378.5,597C 377.287,599.687 376.62,602.52 376.5,605.5C 374.265,609.787 373.265,614.454 373.5,619.5C 372.209,621.949 371.209,624.616 370.5,627.5C 370.709,628.086 371.043,628.586 371.5,629C 370.073,633.114 368.74,637.281 367.5,641.5C 367.709,642.086 368.043,642.586 368.5,643C 365.922,649.115 364.589,655.281 364.5,661.5C 360.176,676.256 356.842,691.59 354.5,707.5C 353.105,713.912 351.272,720.579 349,727.5C 346.865,729.278 344.365,729.945 341.5,729.5C 326.22,724.132 310.72,719.132 295,714.5C 294.667,714.833 294.333,715.167 294,715.5C 283.892,711.2 273.392,708.2 262.5,706.5C 253.947,703.536 245.28,700.536 236.5,697.5C 235.914,697.709 235.414,698.043 235,698.5C 225.344,694.815 215.177,691.648 204.5,689C 201.058,688.573 199.558,686.74 200,683.5C 203.126,680.735 206.292,680.401 209.5,682.5C 210.689,682.244 211.856,681.911 213,681.5C 219.807,682.622 226.641,683.622 233.5,684.5C 234.772,684.43 235.938,684.097 237,683.5C 238.194,684.43 239.527,685.097 241,685.5C 245.419,685.149 249.919,685.149 254.5,685.5C 264.939,687.451 275.439,688.784 286,689.5C 288.835,676.161 291.668,662.828 294.5,649.5C 294.291,648.914 293.957,648.414 293.5,648C 295.659,642.732 296.659,637.399 296.5,632C 297.893,627.208 299.227,622.375 300.5,617.5C 299.332,616.094 299.665,614.928 301.5,614C 301.043,613.586 300.709,613.086 300.5,612.5C 301.773,607.625 303.107,602.792 304.5,598C 304.043,597.586 303.709,597.086 303.5,596.5C 305.861,589.119 307.194,581.786 307.5,574.5C 308.306,573.003 308.972,571.336 309.5,569.5C 308.529,568.038 308.862,566.705 310.5,565.5C 310.291,564.914 309.957,564.414 309.5,564C 312.045,555.245 314.045,546.578 315.5,538C 314.3,536.297 314.633,534.797 316.5,533.5C 316.291,532.914 315.957,532.414 315.5,532C 316.893,527.208 318.227,522.375 319.5,517.5C 319.291,516.914 318.957,516.414 318.5,516C 320.659,510.732 321.659,505.399 321.5,500C 322.83,495.362 324.163,490.696 325.5,486C 325.355,485.228 325.022,484.561 324.5,484C 326.659,478.732 327.659,473.399 327.5,468C 329.335,467.072 329.668,465.906 328.5,464.5C 330.256,460.36 330.923,456.193 330.5,452C 332.335,451.072 332.668,449.906 331.5,448.5C 333.175,444.327 333.841,440.161 333.5,436C 335.689,435.323 336.022,434.156 334.5,432.5C 336.256,428.36 336.923,424.193 336.5,420C 337.044,419.283 337.711,418.783 338.5,418.5 Z"/></g>
<g><path style="opacity:1" fill="#5cb7ff" d="M 975.5,437.5 C 982.4,452.851 988.733,468.517 994.5,484.5C 989.721,482.608 985.388,479.941 981.5,476.5C 980.614,477.325 980.281,478.325 980.5,479.5C 973.321,463.126 966.654,446.46 960.5,429.5C 960.517,427.972 961.184,427.472 962.5,428C 966.863,431.176 971.196,434.343 975.5,437.5 Z"/></g>
<g><path style="opacity:0.91" fill="#adadad" d="M 660.5,421.5 C 662.198,425.945 663.532,430.612 664.5,435.5C 664.291,436.086 663.957,436.586 663.5,437C 666.05,443.918 667.383,451.085 667.5,458.5C 666.833,458.5 666.5,458.167 666.5,457.5C 666.073,454.624 665.406,451.791 664.5,449C 664.645,448.228 664.978,447.561 665.5,447C 663.408,446.047 663.075,444.714 664.5,443C 662.086,435.882 660.753,428.715 660.5,421.5 Z"/></g>
<g><path style="opacity:0.118" fill="#bcbfbf" d="M 556.5,422.5 C 564.868,434.581 572.534,447.248 579.5,460.5C 579.376,461.107 579.043,461.44 578.5,461.5C 570.361,449.01 563.028,436.01 556.5,422.5 Z"/></g>
<g><path style="opacity:0.468" fill="#fefffe" d="M 879.5,445.5 C 881.553,445.402 883.22,446.069 884.5,447.5C 882.447,447.598 880.78,446.931 879.5,445.5 Z"/></g>
<g><path style="opacity:0.422" fill="#f2feff" d="M 886.5,448.5 C 888.553,448.402 890.22,449.069 891.5,450.5C 889.447,450.598 887.78,449.931 886.5,448.5 Z"/></g>
<g><path style="opacity:0.426" fill="#f2feff" d="M 893.5,451.5 C 895.553,451.402 897.22,452.069 898.5,453.5C 896.447,453.598 894.78,452.931 893.5,451.5 Z"/></g>
<g><path style="opacity:0.454" fill="#ebfcff" d="M 900.5,454.5 C 902.553,454.402 904.22,455.069 905.5,456.5C 903.447,456.598 901.78,455.931 900.5,454.5 Z"/></g>
<g><path style="opacity:0.454" fill="#fbfbfb" d="M 576.5,462.5 C 575.016,464.074 573.349,465.407 571.5,466.5C 570.833,466.5 570.167,466.5 569.5,466.5C 571.336,464.412 573.669,463.079 576.5,462.5 Z"/></g>
<g><path style="opacity:1" fill="#0bdefe" d="M 569.5,466.5 C 570.167,466.5 570.833,466.5 571.5,466.5C 608.149,491.474 644.815,516.474 681.5,541.5C 682.896,543.562 683.229,545.729 682.5,548C 684.742,558.449 687.075,568.949 689.5,579.5C 689.137,580.183 688.804,580.85 688.5,581.5C 659.833,561.833 631.167,542.167 602.5,522.5C 601.587,520.067 600.587,517.567 599.5,515C 599.957,514.586 600.291,514.086 600.5,513.5C 598.664,508.374 597.331,503.374 596.5,498.5C 571.509,497.5 546.509,497.167 521.5,497.5C 517.999,495.653 517.665,493.32 520.5,490.5C 531.078,485.376 541.745,480.542 552.5,476C 558.229,472.806 563.896,469.639 569.5,466.5 Z"/></g>
<g><path style="opacity:0.433" fill="#f9feff" d="M 900.5,466.5 C 902.553,466.402 904.22,467.069 905.5,468.5C 903.447,468.598 901.78,467.931 900.5,466.5 Z"/></g>
<g><path style="opacity:1" fill="#c0c1c2" d="M 467.5,376.5 C 466.112,381.318 463.779,385.652 460.5,389.5C 447.531,412.701 433.865,436.035 419.5,459.5C 437.8,469.484 456.467,478.65 475.5,487C 479.883,489.305 480.883,492.472 478.5,496.5C 473.482,497.214 468.482,497.881 463.5,498.5C 455.1,497.574 446.767,497.241 438.5,497.5C 425.637,498.158 412.803,498.824 400,499.5C 393.082,535.16 385.248,570.493 376.5,605.5C 376.62,602.52 377.287,599.687 378.5,597C 378.043,596.586 377.709,596.086 377.5,595.5C 379.238,591.829 379.905,588.162 379.5,584.5C 381.385,583.803 381.718,582.803 380.5,581.5C 381.427,578.287 382.427,575.12 383.5,572C 382.185,570.605 382.519,569.605 384.5,569C 383.978,568.439 383.645,567.772 383.5,567C 384.684,562.923 386.017,558.923 387.5,555C 386.978,554.439 386.645,553.772 386.5,553C 387.684,548.923 389.017,544.923 390.5,541C 389.978,540.439 389.645,539.772 389.5,539C 392.987,525.238 396.154,511.738 399,498.5C 415.56,497.456 432.06,496.789 448.5,496.5C 457.839,496.666 467.173,496.5 476.5,496C 478.211,494.867 478.711,493.367 478,491.5C 458.492,480.832 438.659,470.832 418.5,461.5C 417.417,460.635 417.251,459.635 418,458.5C 421.428,453.309 424.595,447.976 427.5,442.5C 433.404,433.033 439.071,423.367 444.5,413.5C 449.308,405.113 454.308,396.78 459.5,388.5C 461.808,384.205 464.474,380.205 467.5,376.5 Z"/></g>
<g><path style="opacity:0.541" fill="#b4b4b4" d="M 356.5,315.5 C 356.557,316.609 356.89,317.609 357.5,318.5C 357.082,319.222 356.416,319.722 355.5,320C 356.022,320.561 356.355,321.228 356.5,322C 354.54,330.852 352.54,339.685 350.5,348.5C 350.624,349.107 350.957,349.44 351.5,349.5C 351.423,350.75 350.756,351.583 349.5,352C 350.022,352.561 350.355,353.228 350.5,354C 348.206,361.059 346.872,367.726 346.5,374C 344.883,378.227 344.216,382.393 344.5,386.5C 343.264,390.928 341.93,395.428 340.5,400C 341.022,400.561 341.355,401.228 341.5,402C 339.565,407.521 338.565,413.021 338.5,418.5C 337.711,418.783 337.044,419.283 336.5,420C 336.923,424.193 336.256,428.36 334.5,432.5C 336.022,434.156 335.689,435.323 333.5,436C 333.841,440.161 333.175,444.327 331.5,448.5C 332.668,449.906 332.335,451.072 330.5,452C 330.923,456.193 330.256,460.36 328.5,464.5C 329.668,465.906 329.335,467.072 327.5,468C 327.659,473.399 326.659,478.732 324.5,484C 325.022,484.561 325.355,485.228 325.5,486C 324.163,490.696 322.83,495.362 321.5,500C 321.659,505.399 320.659,510.732 318.5,516C 318.957,516.414 319.291,516.914 319.5,517.5C 318.227,522.375 316.893,527.208 315.5,532C 315.957,532.414 316.291,532.914 316.5,533.5C 314.633,534.797 314.3,536.297 315.5,538C 314.045,546.578 312.045,555.245 309.5,564C 309.957,564.414 310.291,564.914 310.5,565.5C 308.862,566.705 308.529,568.038 309.5,569.5C 308.972,571.336 308.306,573.003 307.5,574.5C 307.196,573.85 306.863,573.183 306.5,572.5C 316.601,522.868 325.934,473.534 334.5,424.5C 340.633,395.964 346.133,367.298 351,338.5C 352.418,330.606 354.251,322.939 356.5,315.5 Z"/></g>
<g><path style="opacity:0.417" fill="#f5feff" d="M 947.5,474.5 C 949.553,474.402 951.22,475.069 952.5,476.5C 950.447,476.598 948.78,475.931 947.5,474.5 Z"/></g>
<g><path style="opacity:0.686" fill="#c7caca" d="M 569.5,466.5 C 563.896,469.639 558.229,472.806 552.5,476C 541.745,480.542 531.078,485.376 520.5,490.5C 517.665,493.32 517.999,495.653 521.5,497.5C 521.5,497.833 521.5,498.167 521.5,498.5C 516.763,496.7 515.763,493.7 518.5,489.5C 521.956,487.357 525.456,485.357 529,483.5C 533.426,482.89 537.593,481.057 541.5,478C 550.898,474.258 560.232,470.425 569.5,466.5 Z"/></g>
<g><path style="opacity:0.416" fill="#f2feff" d="M 954.5,477.5 C 956.553,477.402 958.22,478.069 959.5,479.5C 957.447,479.598 955.78,478.931 954.5,477.5 Z"/></g>
<g><path style="opacity:0.447" fill="#eefeff" d="M 961.5,480.5 C 963.553,480.402 965.22,481.069 966.5,482.5C 964.447,482.598 962.78,481.931 961.5,480.5 Z"/></g>
<g><path style="opacity:0.632" fill="#fefffe" d="M 983.5,486.5 C 984.249,487.531 984.915,488.698 985.5,490C 984.251,490.74 983.251,490.573 982.5,489.5C 983.404,488.791 983.737,487.791 983.5,486.5 Z"/></g>
<g><path style="opacity:0.441" fill="#f7feff" d="M 961.5,492.5 C 963.553,492.402 965.22,493.069 966.5,494.5C 964.447,494.598 962.78,493.931 961.5,492.5 Z"/></g>
<g><path style="opacity:0.409" fill="#f7feff" d="M 968.5,495.5 C 970.553,495.402 972.22,496.069 973.5,497.5C 971.447,497.598 969.78,496.931 968.5,495.5 Z"/></g>
<g><path style="opacity:0.355" fill="#f6feff" d="M 975.5,498.5 C 979.5,499.167 979.5,499.833 975.5,500.5C 975.5,499.833 975.5,499.167 975.5,498.5 Z"/></g>
<g><path style="opacity:1" fill="#acacad" d="M 667.5,458.5 C 670.755,471.937 673.588,485.604 676,499.5C 677.623,507.777 678.789,516.11 679.5,524.5C 678.29,521.523 677.29,518.356 676.5,515C 676.645,514.228 676.978,513.561 677.5,513C 675.315,506.697 673.981,500.197 673.5,493.5C 670.629,483.145 668.296,472.479 666.5,461.5C 667.127,460.583 667.461,459.583 667.5,458.5 Z"/></g>
<g><path style="opacity:0.409" fill="#f1feff" d="M 973.5,501.5 C 972.22,502.931 970.553,503.598 968.5,503.5C 969.78,502.069 971.447,501.402 973.5,501.5 Z"/></g>
<g><path style="opacity:0.441" fill="#f2feff" d="M 966.5,504.5 C 965.22,505.931 963.553,506.598 961.5,506.5C 962.78,505.069 964.447,504.402 966.5,504.5 Z"/></g>
<g><path style="opacity:0.632" fill="#fefffe" d="M 982.5,509.5 C 983.251,508.427 984.251,508.26 985.5,509C 984.915,510.302 984.249,511.469 983.5,512.5C 983.737,511.209 983.404,510.209 982.5,509.5 Z"/></g>
<g><path style="opacity:1" fill="#5dc7ff" d="M 959.5,507.5 C 962.861,508.684 965.861,510.517 968.5,513C 970.134,513.494 971.801,513.66 973.5,513.5C 950.467,524.012 927.134,534.012 903.5,543.5C 903.611,542.883 903.944,542.383 904.5,542C 900.929,539.579 897.262,537.413 893.5,535.5C 915.212,525.649 937.212,516.315 959.5,507.5 Z"/></g>
<g><path style="opacity:1" fill="#04e3fe" d="M 602.5,522.5 C 631.167,542.167 659.833,561.833 688.5,581.5C 688.918,582.222 689.584,582.722 690.5,583C 692.09,598.563 694.757,614.063 698.5,629.5C 695.06,627.945 691.727,626.112 688.5,624C 663.79,606.32 638.79,589.153 613.5,572.5C 610.504,558.01 606.837,543.177 602.5,528C 603.138,526.293 603.138,524.46 602.5,522.5 Z"/></g>
<g><path style="opacity:1" fill="#5eceff" d="M 893.5,535.5 C 897.262,537.413 900.929,539.579 904.5,542C 903.944,542.383 903.611,542.883 903.5,543.5C 893.205,548.158 882.871,552.825 872.5,557.5C 872.439,555.408 871.439,553.908 869.5,553C 867.182,551.007 864.516,549.841 861.5,549.5C 871.841,544.268 882.508,539.602 893.5,535.5 Z"/></g>
<g><path style="opacity:1" fill="#5cc6ff" d="M 988.5,529.5 C 981.4,548.816 973.733,567.816 965.5,586.5C 963.902,582.516 960.902,580.183 956.5,579.5C 963.6,560.184 971.267,541.184 979.5,522.5C 980.117,522.389 980.617,522.056 981,521.5C 982.833,522.667 984.667,523.833 986.5,525C 988.037,526.11 988.703,527.61 988.5,529.5 Z"/></g>
<g><path style="opacity:1" fill="#52d1ff" d="M 861.5,549.5 C 864.516,549.841 867.182,551.007 869.5,553C 871.439,553.908 872.439,555.408 872.5,557.5C 870.701,572.901 869.367,588.235 868.5,603.5C 868.662,601.473 868.495,599.473 868,597.5C 863.763,593.964 859.263,590.798 854.5,588C 852.963,586.89 852.297,585.39 852.5,583.5C 855.969,572.125 858.969,560.792 861.5,549.5 Z"/></g>
<g><path style="opacity:1" fill="#03eafe" d="M 613.5,572.5 C 638.79,589.153 663.79,606.32 688.5,624C 691.727,626.112 695.06,627.945 698.5,629.5C 699.149,631.477 699.149,633.31 698.5,635C 700.51,645.435 702.843,655.768 705.5,666C 704.075,667.714 704.408,669.047 706.5,670C 705.663,671.011 705.33,672.178 705.5,673.5C 683.355,658.59 661.355,643.423 639.5,628C 634.276,624.559 628.943,621.392 623.5,618.5C 620.177,603.171 616.843,587.838 613.5,572.5 Z"/></g>
<g><path style="opacity:1" fill="#57d9ff" d="M 852.5,583.5 C 852.297,585.39 852.963,586.89 854.5,588C 859.263,590.798 863.763,593.964 868,597.5C 868.495,599.473 868.662,601.473 868.5,603.5C 867.824,630.354 866.491,657.021 864.5,683.5C 864.666,678.489 864.499,673.489 864,668.5C 860.956,665.949 857.789,663.616 854.5,661.5C 854.571,648.08 855.238,634.746 856.5,621.5C 857.651,616.35 857.817,611.016 857,605.5C 856.187,607.436 855.687,609.436 855.5,611.5C 855.405,613.786 854.738,615.786 853.5,617.5C 852.842,618.398 852.176,619.398 851.5,620.5C 848.607,618.555 845.607,616.889 842.5,615.5C 845.261,604.556 848.594,593.889 852.5,583.5 Z"/></g>
<g><path style="opacity:0.586" fill="#fefffe" d="M 143.5,611.5 C 142.521,614.625 142.187,617.958 142.5,621.5C 141.349,616.35 141.183,611.016 142,605.5C 142.813,607.436 143.313,609.436 143.5,611.5 Z"/></g>
<g><path style="opacity:0.586" fill="#fefffe" d="M 856.5,621.5 C 856.813,617.958 856.479,614.625 855.5,611.5C 855.687,609.436 856.187,607.436 857,605.5C 857.817,611.016 857.651,616.35 856.5,621.5 Z"/></g>
<g><path style="opacity:1" fill="#5dd1ff" d="M 956.5,579.5 C 960.902,580.183 963.902,582.516 965.5,586.5C 957.737,607.802 949.403,628.802 940.5,649.5C 938.902,645.516 935.902,643.183 931.5,642.5C 939.263,621.198 947.597,600.198 956.5,579.5 Z"/></g>
<g><path style="opacity:0.808" fill="#afb5b5" d="M 376.5,605.5 C 376.784,610.372 375.784,615.039 373.5,619.5C 373.265,614.454 374.265,609.787 376.5,605.5 Z"/></g>
<g><path style="opacity:1" fill="#62deff" d="M 842.5,615.5 C 845.607,616.889 848.607,618.555 851.5,620.5C 852.176,619.398 852.842,618.398 853.5,617.5C 850.435,629.778 846.769,641.778 842.5,653.5C 839.506,651 836.173,649 832.5,647.5C 835.261,636.556 838.594,625.889 842.5,615.5 Z"/></g>
<g><path style="opacity:1" fill="#04f1fe" d="M 623.5,618.5 C 628.943,621.392 634.276,624.559 639.5,628C 661.355,643.423 683.355,658.59 705.5,673.5C 707.108,678.59 708.441,683.59 709.5,688.5C 714.718,688.238 720.051,687.904 725.5,687.5C 732.324,692.745 739.324,697.745 746.5,702.5C 728.862,707.287 711.696,712.621 695,718.5C 694.667,718.167 694.333,717.833 694,717.5C 692.124,718.609 690.291,719.609 688.5,720.5C 676.36,723.231 664.36,726.565 652.5,730.5C 650.971,730.471 649.804,729.804 649,728.5C 647.763,721.736 645.93,714.902 643.5,708C 644.458,706.853 644.125,705.853 642.5,705C 642.957,704.586 643.291,704.086 643.5,703.5C 636.908,674.817 630.241,646.483 623.5,618.5 Z"/></g>
<g><path style="opacity:1" fill="#abadad" d="M 307.5,574.5 C 307.194,581.786 305.861,589.119 303.5,596.5C 303.709,597.086 304.043,597.586 304.5,598C 303.107,602.792 301.773,607.625 300.5,612.5C 300.709,613.086 301.043,613.586 301.5,614C 299.665,614.928 299.332,616.094 300.5,617.5C 299.227,622.375 297.893,627.208 296.5,632C 296.659,637.399 295.659,642.732 293.5,648C 293.957,648.414 294.291,648.914 294.5,649.5C 291.668,662.828 288.835,676.161 286,689.5C 275.439,688.784 264.939,687.451 254.5,685.5C 254.5,685.167 254.5,684.833 254.5,684.5C 264.825,685.573 275.159,686.573 285.5,687.5C 292.079,649.547 299.412,611.88 307.5,574.5 Z"/></g>
<g><path style="opacity:0.239" fill="#c6c6c6" d="M 373.5,619.5 C 373.18,622.952 373.18,626.285 373.5,629.5C 370.181,640.113 367.181,650.779 364.5,661.5C 364.589,655.281 365.922,649.115 368.5,643C 368.043,642.586 367.709,642.086 367.5,641.5C 368.74,637.281 370.073,633.114 371.5,629C 371.043,628.586 370.709,628.086 370.5,627.5C 371.209,624.616 372.209,621.949 373.5,619.5 Z"/></g>
<g><path style="opacity:0.502" fill="#b4b4b4" d="M 679.5,524.5 C 690.257,577.926 700.424,631.593 710,685.5C 711.4,686.116 712.9,686.449 714.5,686.5C 742.19,683.875 769.856,681.375 797.5,679C 801.485,682.381 801.485,685.714 797.5,689C 761.281,700.019 724.947,710.519 688.5,720.5C 690.291,719.609 692.124,718.609 694,717.5C 694.333,717.833 694.667,718.167 695,718.5C 711.696,712.621 728.862,707.287 746.5,702.5C 763.624,697.774 780.624,692.608 797.5,687C 800.167,685 800.167,683 797.5,681C 783.553,681.081 769.553,682.247 755.5,684.5C 754.228,684.43 753.062,684.097 752,683.5C 749.984,685.751 747.651,686.084 745,684.5C 738.349,685.4 731.849,686.4 725.5,687.5C 720.051,687.904 714.718,688.238 709.5,688.5C 708.441,683.59 707.108,678.59 705.5,673.5C 705.33,672.178 705.663,671.011 706.5,670C 704.408,669.047 704.075,667.714 705.5,666C 702.843,655.768 700.51,645.435 698.5,635C 699.149,633.31 699.149,631.477 698.5,629.5C 694.757,614.063 692.09,598.563 690.5,583C 689.584,582.722 688.918,582.222 688.5,581.5C 688.804,580.85 689.137,580.183 689.5,579.5C 687.075,568.949 684.742,558.449 682.5,548C 683.229,545.729 682.896,543.562 681.5,541.5C 680.833,535.833 680.167,530.167 679.5,524.5 Z"/></g>
<g><path style="opacity:1" fill="#b4b5b5" d="M 521.5,498.5 C 521.5,498.167 521.5,497.833 521.5,497.5C 546.509,497.167 571.509,497.5 596.5,498.5C 597.331,503.374 598.664,508.374 600.5,513.5C 600.291,514.086 599.957,514.586 599.5,515C 600.587,517.567 601.587,520.067 602.5,522.5C 603.138,524.46 603.138,526.293 602.5,528C 606.837,543.177 610.504,558.01 613.5,572.5C 616.843,587.838 620.177,603.171 623.5,618.5C 630.241,646.483 636.908,674.817 643.5,703.5C 643.291,704.086 642.957,704.586 642.5,705C 644.125,705.853 644.458,706.853 643.5,708C 645.93,714.902 647.763,721.736 649,728.5C 649.804,729.804 650.971,730.471 652.5,730.5C 664.36,726.565 676.36,723.231 688.5,720.5C 678.172,724.592 667.505,728.092 656.5,731C 652.719,732.098 649.553,731.265 647,728.5C 630.206,652.302 612.873,575.969 595,499.5C 570.575,498.506 546.075,498.172 521.5,498.5 Z"/></g>
<g><path style="opacity:1" fill="#5edcff" d="M 931.5,642.5 C 935.902,643.183 938.902,645.516 940.5,649.5C 933.4,668.816 925.733,687.816 917.5,706.5C 915.433,703.114 912.433,700.781 908.5,699.5C 915.6,680.184 923.267,661.184 931.5,642.5 Z"/></g>
<g><path style="opacity:1" fill="#60e6ff" d="M 832.5,647.5 C 836.173,649 839.506,651 842.5,653.5C 836.406,675.111 829.739,696.444 822.5,717.5C 820.269,714.608 817.436,712.274 814,710.5C 813.617,711.056 813.117,711.389 812.5,711.5C 818.594,689.889 825.261,668.556 832.5,647.5 Z"/></g>
<g><path style="opacity:1" fill="#0beafe" d="M 746.5,702.5 C 739.324,697.745 732.324,692.745 725.5,687.5C 731.849,686.4 738.349,685.4 745,684.5C 747.651,686.084 749.984,685.751 752,683.5C 753.062,684.097 754.228,684.43 755.5,684.5C 769.553,682.247 783.553,681.081 797.5,681C 800.167,683 800.167,685 797.5,687C 780.624,692.608 763.624,697.774 746.5,702.5 Z"/></g>
<g><path style="opacity:0.504" fill="#b5b6b6" d="M 364.5,661.5 C 362.753,673.554 360.587,685.554 358,697.5C 357.122,701.052 355.956,704.386 354.5,707.5C 356.842,691.59 360.176,676.256 364.5,661.5 Z"/></g>
<g><path style="opacity:0.651" fill="#b8b8b8" d="M 254.5,684.5 C 254.5,684.833 254.5,685.167 254.5,685.5C 249.919,685.149 245.419,685.149 241,685.5C 239.527,685.097 238.194,684.43 237,683.5C 235.938,684.097 234.772,684.43 233.5,684.5C 226.641,683.622 219.807,682.622 213,681.5C 211.856,681.911 210.689,682.244 209.5,682.5C 206.292,680.401 203.126,680.735 200,683.5C 199.558,686.74 201.058,688.573 204.5,689C 215.177,691.648 225.344,694.815 235,698.5C 235.414,698.043 235.914,697.709 236.5,697.5C 245.28,700.536 253.947,703.536 262.5,706.5C 241.231,700.944 220.064,694.944 199,688.5C 197.015,682.963 198.848,679.963 204.5,679.5C 221.118,681.697 237.785,683.363 254.5,684.5 Z"/></g>
<g><path style="opacity:1" fill="#5ce6ff" d="M 854.5,661.5 C 857.789,663.616 860.956,665.949 864,668.5C 864.499,673.489 864.666,678.489 864.5,683.5C 864.157,703.687 863.157,723.687 861.5,743.5C 858.312,741.31 855.145,738.976 852,736.5C 851.802,738.382 851.302,740.048 850.5,741.5C 851.238,714.746 852.571,688.08 854.5,661.5 Z"/></g>
<g><path style="opacity:1" fill="#61eeff" d="M 822.5,717.5 C 819.739,728.444 816.406,739.111 812.5,749.5C 812.586,748.504 812.252,747.671 811.5,747C 809.5,745.667 807.5,744.333 805.5,743C 804.423,742.53 803.423,742.697 802.5,743.5C 805.261,732.556 808.594,721.889 812.5,711.5C 813.117,711.389 813.617,711.056 814,710.5C 817.436,712.274 820.269,714.608 822.5,717.5 Z"/></g>
<g><path style="opacity:0.875" fill="#b8b9b9" d="M 262.5,706.5 C 273.392,708.2 283.892,711.2 294,715.5C 294.333,715.167 294.667,714.833 295,714.5C 310.72,719.132 326.22,724.132 341.5,729.5C 316.781,722.981 292.114,716.148 267.5,709C 265.509,708.626 263.842,707.793 262.5,706.5 Z"/></g>
<g><path style="opacity:1" fill="#5fe6ff" d="M 908.5,699.5 C 912.433,700.781 915.433,703.114 917.5,706.5C 910.07,726.803 902.07,746.803 893.5,766.5C 891.082,763.453 888.082,761.12 884.5,759.5C 891.987,739.207 899.987,719.207 908.5,699.5 Z"/></g>
<g><path style="opacity:0.604" fill="#bcbdbd" d="M 354.5,707.5 C 354.923,708.265 355.257,709.098 355.5,710C 353.539,716.062 352.039,722.229 351,728.5C 348.03,732.011 344.864,732.345 341.5,729.5C 344.365,729.945 346.865,729.278 349,727.5C 351.272,720.579 353.105,713.912 354.5,707.5 Z"/></g>
<g><path style="opacity:1" fill="#48ecff" d="M 861.5,743.5 C 861.795,750.588 861.462,757.588 860.5,764.5C 859.673,769.651 859.173,774.984 859,780.5C 856,778.167 853,775.833 850,773.5C 849.501,769.848 849.335,766.182 849.5,762.5C 849.205,755.412 849.538,748.412 850.5,741.5C 851.302,740.048 851.802,738.382 852,736.5C 855.145,738.976 858.312,741.31 861.5,743.5 Z"/></g>
<g><path style="opacity:1" fill="#60eeff" d="M 884.5,759.5 C 888.082,761.12 891.082,763.453 893.5,766.5C 890.07,776.803 886.07,786.803 881.5,796.5C 878.81,793.815 875.81,791.482 872.5,789.5C 875.987,779.207 879.987,769.207 884.5,759.5 Z"/></g>
<g><path style="opacity:0.48" fill="#fefffe" d="M 140.5,804.5 C 141.49,810.645 141.823,816.978 141.5,823.5C 140.833,823.5 140.5,823.833 140.5,824.5C 139.662,824.158 139.328,823.492 139.5,822.5C 140.49,816.69 140.823,810.69 140.5,804.5 Z"/></g>
<g><path style="opacity:0.48" fill="#fefffe" d="M 858.5,804.5 C 858.177,810.69 858.51,816.69 859.5,822.5C 859.672,823.492 859.338,824.158 858.5,824.5C 858.5,823.833 858.167,823.5 857.5,823.5C 857.177,816.978 857.51,810.645 858.5,804.5 Z"/></g>
<g><path style="opacity:0.73" fill="#fbfeff" d="M 140.5,824.5 C 141.649,824.791 142.316,825.624 142.5,827C 142.333,827.833 142.167,828.667 142,829.5C 140.991,827.975 140.491,826.308 140.5,824.5 Z"/></g>
<g><path style="opacity:0.73" fill="#fbfeff" d="M 857.5,824.5 C 857.833,824.5 858.167,824.5 858.5,824.5C 858.509,826.308 858.009,827.975 857,829.5C 856.22,827.613 856.387,825.946 857.5,824.5 Z"/></g>
<g><path style="opacity:0.206" fill="#fefffe" d="M 153.5,842.5 C 154.461,844.265 154.795,846.265 154.5,848.5C 155.791,848.263 156.791,848.596 157.5,849.5C 156.167,849.5 154.833,849.5 153.5,849.5C 153.5,847.167 153.5,844.833 153.5,842.5 Z"/></g>
<g><path style="opacity:0.206" fill="#fefffe" d="M 845.5,842.5 C 845.5,844.833 845.5,847.167 845.5,849.5C 844.167,849.5 842.833,849.5 841.5,849.5C 842.209,848.596 843.209,848.263 844.5,848.5C 844.205,846.265 844.539,844.265 845.5,842.5 Z"/></g>
<g><path style="opacity:0.545" fill="#fdfeff" d="M 199.5,866.5 C 197.901,866.232 196.568,866.566 195.5,867.5C 192.763,866.969 190.096,866.136 187.5,865C 191.7,864.721 195.7,865.221 199.5,866.5 Z"/></g>
<g><path style="opacity:0.545" fill="#fdfeff" d="M 803.5,867.5 C 802.432,866.566 801.099,866.232 799.5,866.5C 803.3,865.221 807.3,864.721 811.5,865C 808.904,866.136 806.237,866.969 803.5,867.5 Z"/></g>
<g><path style="opacity:0.487" fill="#fefffe" d="M 390.5,879.5 C 391.791,879.263 392.791,879.596 393.5,880.5C 392.833,880.5 392.5,880.833 392.5,881.5C 389.941,881.802 387.607,881.468 385.5,880.5C 387.415,880.784 389.081,880.451 390.5,879.5 Z"/></g>
<g><path style="opacity:0.487" fill="#fefffe" d="M 605.5,880.5 C 606.209,879.596 607.209,879.263 608.5,879.5C 609.919,880.451 611.585,880.784 613.5,880.5C 611.393,881.468 609.059,881.802 606.5,881.5C 605.833,881.5 605.5,881.167 605.5,880.5 Z"/></g>
<g><path style="opacity:0.41" fill="#e7fdff" d="M 497.5,981.5 C 498.833,982.833 500.167,982.833 501.5,981.5C 500.167,985.5 498.833,985.5 497.5,981.5 Z"/></g>
</svg>
